<?xml version='1.0' encoding='utf-8'?>
<svg xmlns="http://www.w3.org/2000/svg" width="1920" height="1080" viewBox="0 0 1920 1080" data-theme="light">
  <style>
        @font-face {
            font-family: 'Inter';
            src: url('assets/fonts/Inter-Regular.ttf') format('truetype');
            font-weight: 400;
            font-style: normal;
            font-display: swap;
        }
        @font-face {
            font-family: 'Inter';
            src: url('assets/fonts/Inter-Bold.ttf') format('truetype');
            font-weight: 600;
            font-style: normal;
            font-display: swap;
        }
        @font-face {
            font-family: 'Inter';
            src: url('assets/fonts/Inter-Bold.ttf') format('truetype');
            font-weight: 800;
            font-style: normal;
            font-display: swap;
        }
        
:root {
    --background: #f8fafc;
    --panel: #ffffff;
    --primary-text: #0f172a;
    --muted-text: #64748b;
    --inverse-text: #ffffff;
    --border: #e2e8f0;
    --shadow-color: #000000;
    --icon-pad-bg: #1e293b;
    --art-glow: #0891b2;
    --art-glow-opacity: 0.10;
    --art-sheen: #ffffff;
    --art-sheen-opacity: 0.34;
    --art-shadow: #0f172a;
    --art-shadow-opacity: 0.14;
    --art-muted-line: #94a3b8;
    --art-panel-tint: #f1f5f9;
    --font-family: 'Inter', 'Segoe UI', 'Kalam', Roboto, Helvetica, Arial, sans-serif;
    --radius-xl: 16px;
    --font-family-headline: 'Inter', 'Segoe UI', 'Kalam', Roboto, Helvetica, Arial, sans-serif;
    --font-family-body: 'Inter', 'Segoe UI', 'Kalam', Roboto, Helvetica, Arial, sans-serif;
    --font-heading: 'Inter', 'Segoe UI', 'Kalam', Roboto, Helvetica, Arial, sans-serif;
    --font-body: 'Inter', 'Segoe UI', 'Kalam', Roboto, Helvetica, Arial, sans-serif;
    --font-size-h1: 56px;
    --font-size-h2: 40px;
    --font-size-h3: 28px;
    --font-size-body: 24px;
    --font-size-caption: 18px;
    --secondary-text: var(--muted-text);
    --panel-border: var(--border);
    --font-weight-normal: 400;
    --font-weight-medium: 500;
    --font-weight-semibold: 600;
    --font-weight-bold: 700;
    --spacing-gutter-pct: 0.07;
    --spacing-top-pct: 0.15;
    --spacing-bottom-pct: 0.07;
    --spacing-title-y-pct: 0.055;
    --accent-1: #0891b2;
    --accent-2: #db2777;
    --accent-3: #ca8a04;
    --accent-4: #65a30d;
    --accent-5: #ea580c;
    --accent-6: #9333ea;
}
:root[data-theme="dark"] {
    --background: #0f172a;
    --panel: #1e293b;
    --primary-text: #f1f5f9;
    --muted-text: #94a3b8;
    --inverse-text: #0f172a;
    --border: #334155;
    --shadow-color: #000000;
    --icon-pad-bg: #1e293b;
    --art-glow: #7dd3fc;
    --art-glow-opacity: 0.18;
    --art-sheen: #ffffff;
    --art-sheen-opacity: 0.18;
    --art-shadow: #000000;
    --art-shadow-opacity: 0.28;
    --art-muted-line: #64748b;
    --art-panel-tint: #1e293b;
    --accent-1: #22d3ee;
    --accent-2: #f472b6;
    --accent-3: #facc15;
    --accent-4: #a3e635;
    --accent-5: #fb923c;
    --accent-6: #c084fc;
}
:root[data-theme="light"] {
    --background: #f8fafc;
    --panel: #ffffff;
    --primary-text: #0f172a;
    --muted-text: #64748b;
    --inverse-text: #ffffff;
    --border: #e2e8f0;
    --shadow-color: #000000;
    --icon-pad-bg: #1e293b;
    --art-glow: #0891b2;
    --art-glow-opacity: 0.10;
    --art-sheen: #ffffff;
    --art-sheen-opacity: 0.34;
    --art-shadow: #0f172a;
    --art-shadow-opacity: 0.14;
    --art-muted-line: #94a3b8;
    --art-panel-tint: #f1f5f9;
    --accent-1: #0891b2;
    --accent-2: #db2777;
    --accent-3: #ca8a04;
    --accent-4: #65a30d;
    --accent-5: #ea580c;
    --accent-6: #9333ea;
}</style>
  <rect x="0" y="0" width="1.92E+3" height="1.08E+3" fill="#252a34" stroke="none" id="programmatic_background"/>
  <line id="HEADER_DECOR" x1="960.0" x2="1080.0" y1="135.0" y2="135.0" stroke="var(--accent-1)" stroke-width="6" stroke-linecap="round"/>
  <defs>
    <pattern id="svg5448a7f8-napkin-hatch" patternUnits="userSpaceOnUse" width="12" height="12">
      <path d="M -3 12 L 12 -3 M 0 15 L 15 0" fill="none" stroke="var(--primary-text)" stroke-width="1" stroke-opacity="0.05"/>
    </pattern>
    <filter id="svg5448a7f8-shadow" x="-30%" y="-30%" width="160%" height="160%">
      <feDropShadow dx="0" dy="2" stdDeviation="3" flood-color="#000000" flood-opacity="0.08"/>
      <feDropShadow dx="0" dy="6" stdDeviation="10" flood-color="#000000" flood-opacity="0.12"/>
    </filter>
    <marker id="svg5448a7f8-arrowhead" markerWidth="10" markerHeight="10" refX="9" refY="5" orient="auto">
      <path d="M 0 0 L 10 5 L 0 10 Z" fill="var(--accent-1)"/>
    </marker>
    <filter id="svg5448a7f8-text-glow" x="-20%" y="-20%" width="140%" height="140%">
      <feDropShadow dx="0" dy="0" stdDeviation="2" flood-color="#000000" flood-opacity="0.4"/>
    </filter>
    <radialGradient id="svg5448a7f8-universal-edge-vignette" cx="50%" cy="50%" r="72%">
      <stop offset="0%" stop-color="var(--background)" stop-opacity="0"/>
      <stop offset="72%" stop-color="var(--background)" stop-opacity="0.12"/>
      <stop offset="100%" stop-color="var(--primary-text)" stop-opacity="0.08"/>
    </radialGradient>
    <linearGradient id="svg5448a7f8-universal-surface-sheen" x1="0%" y1="0%" x2="100%" y2="100%">
      <stop offset="0%" stop-color="var(--art-sheen)" stop-opacity="var(--art-sheen-opacity)"/>
      <stop offset="46%" stop-color="var(--art-sheen)" stop-opacity="0.035"/>
      <stop offset="100%" stop-color="var(--art-panel-tint)" stop-opacity="0.14"/>
    </linearGradient>
    <radialGradient id="svg5448a7f8-universal-icon-aura" cx="50%" cy="42%" r="64%">
      <stop offset="0%" stop-color="var(--art-glow)" stop-opacity="var(--art-glow-opacity)"/>
      <stop offset="100%" stop-color="var(--background)" stop-opacity="0"/>
    </radialGradient>
  </defs>
  <rect width="100%" height="100%" fill="var(--background)" id="CANVAS_BG"/>
  <rect width="100%" height="100%" fill="url(#svg5448a7f8-napkin-hatch)"/>
  <rect id="UNIVERSAL_EDGE_VIGNETTE" width="100%" height="100%" fill="url(#svg5448a7f8-universal-edge-vignette)" opacity="0.62"/>
  <text id="TITLE" x="960.0" y="59" text-anchor="middle" font-weight="700" font-size="72" fill="#0f172a" style="font-size: 60px; font-family: Inter, Segoe UI, Kalam, Roboto, Helvetica, Arial, sans-serif; font-weight: 700; letter-spacing:-1.2px;" data-final-font-size="60">
    <tspan x="960.0" dy="68.00px">Evolution of North Marston's Folklore</tspan>
  </text>
  <rect id="TITLE_FRAME" x="134" y="59" width="1652" height="103" fill="none"/>
  <g id="DIAGRAM_SCALER" transform="translate(28.8, 27.0) scale(0.97)">
    <path d="M 960 360 L 960 450" stroke="var(--muted-text)" stroke-width="3.0" fill="none" opacity="0.52"/>
    <path d="M 210.0 450 L 1710.0 450" stroke="var(--muted-text)" stroke-width="3.0" fill="none" opacity="0.52"/>
    <path d="M 210.0 450 L 210.0 570" stroke="var(--muted-text)" stroke-width="3.0" fill="none" opacity="0.52"/>
    <path d="M 693.3 450 L 693.3 570" stroke="var(--muted-text)" stroke-width="3.0" fill="none" opacity="0.52"/>
    <path d="M 1226.7 450 L 1226.7 570" stroke="var(--muted-text)" stroke-width="3.0" fill="none" opacity="0.52"/>
    <path d="M 1710.0 450 L 1710.0 570" stroke="var(--muted-text)" stroke-width="3.0" fill="none" opacity="0.52"/>
    <g transform="translate(960.0, 270.0)">
      <rect id="ITEM_1_BG" x="-210" y="-90" width="420" height="180" rx="24" fill="var(--panel)" fill-opacity="0.86" stroke="var(--primary-text)" stroke-width="2.6"/>
      <circle id="ITEM_1_PAD" cx="0" cy="40" r="42" fill="var(--icon-pad-bg)" stroke="var(--primary-text)" opacity="0.9" fill-opacity="0.9" stroke-width="2"/>
      <circle id="ITEM_1_PAD_INNER" cx="0" cy="40" r="32.76" fill="var(--accent-5)" fill-opacity="0.22"/>
      <circle cx="0" cy="40" r="33.6" fill="none" stroke="var(--accent-1)" stroke-width="3" stroke-dasharray="6 4"/>
      <g id="ITEM_1_ICON" transform="translate(-36.0, 4.0)" data-icon-size="72">
        <g transform="translate(-2.4,-2.399999999999997) scale(0.15)" vector-effect="non-scaling-stroke" fill="#f1f5f9" fill-opacity="1.0" stroke="none">
          <path fill="#f1f5f9" d="M326.4 26.52c-.7 0-1.7.14-2.9.44c-3.4.82-8 3.38-11.7 6.89c-3.8 3.51-6.7 7.92-7.9 11.34c-1.1 3.41-.8 4.92.5 6.57c27.4 33.77 52.6 72.04 71.9 105.74c19.3 33.8 32.7 62.2 36.6 79.9c.4 1.8.7 2 .7 1.9c1.2 0 5.7-1.7 9.9-5.2c4.3-3.5 8.6-8.6 11.1-13.3c2.6-4.7 3.1-8.8 2.6-10.4c-15.1-55.3-42.6-116.41-107.9-182.57c-.7-.67-1.3-1.09-2.2-1.24c-.2 0-.4-.1-.7-.1zm53.2 30.97c11 13.92 20.6 27.66 28.9 41.17c13 7.24 28.5 16.34 43.9 26.04c15.2 9.4 29.4 18.9 40.9 27.4l-1.8-28.2c-16.4-16.3-45-33.55-74.1-48.31c-13.1-6.65-25.8-12.61-37.8-18.1M247.1 105.8c-.7 0-1.7.1-2.9.4c-3.4.8-7.9 3.4-11.7 6.9c-3.7 3.5-6.6 7.9-7.7 11.3c-1.1 3.3-.9 4.8.5 6.5c27.4 33.8 52.6 72 71.9 105.7c19.3 33.8 32.6 62.3 36.6 79.8v.1c.4 1.8.7 2 .7 1.9c1.1 0 5.6-1.7 9.9-5.2s8.5-8.6 11.1-13.3c2.5-4.7 3-8.9 2.6-10.4c-15.3-55.2-42.8-116.2-108.1-182.4c-.7-.7-1.3-1.1-2.2-1.2c-.2-.1-.4-.1-.7-.1m53.1 30.9c11.1 14 20.7 27.8 29.1 41.3c13 7.3 28.5 16.4 43.9 26c3.5 2.2 7 4.4 10.4 6.6c-5.8-12.7-13.6-27.7-22.7-43.7c-7.4-4.2-15-8.2-22.7-12.1c-13.2-6.6-25.9-12.6-38-18.1m-126.5 57.1c-.7 0-1.7.1-2.9.4c-3.4.8-8 3.4-11.7 6.9c-3.8 3.5-6.7 7.9-7.9 11.3c-1.1 3.4-.8 4.9.5 6.5c27.4 33.7 52.6 71.9 71.9 105.7s32.7 62.2 36.6 79.9c.4 1.8.7 2 .7 1.9c1.1 0 5.7-1.7 9.9-5.2c4.3-3.5 8.6-8.6 11.1-13.3c2.6-4.8 3.1-8.9 2.6-10.5c-15.2-55.1-42.6-116.1-107.9-182.4c-.7-.6-1.3-1-2.2-1.2zm53.1 30.9c11.1 13.9 20.6 27.7 29 41.2c13 7.3 28.5 16.4 43.9 26c2.7 1.7 5.4 3.4 8 5c-5.2-11.9-12.5-26.6-21.3-42.5c-7.1-4-14.4-7.9-21.8-11.6c-13.1-6.7-25.8-12.6-37.8-18.1M94.5 272.9c-.77 0-1.71.2-2.97.5c-3.34.8-7.91 3.3-11.67 6.8s-6.68 7.9-7.79 11.3c-1.1 3.4-.86 4.9.48 6.5c27.43 33.8 52.65 72 71.95 105.7c19.3 33.8 32.7 62.2 36.6 79.8v.1c.4 1.8.7 2 .7 1.9c1.2 0 5.7-1.7 9.9-5.2c4.3-3.5 8.6-8.6 11.1-13.3c2.6-4.7 3.1-8.8 2.6-10.4c-15.3-55.1-42.7-116.1-108.02-182.4c-.7-.6-1.3-1.1-2.17-1.2c-.22-.1-.46-.1-.71-.1m53.1 30.9c11.1 14 20.7 27.8 29 41.3c13 7.3 28.5 16.4 43.9 26c3.5 2.2 7 4.4 10.4 6.6c-5.8-12.7-13.5-27.7-22.6-43.7c-7.4-4.1-15.1-8.2-22.8-12.1c-13.1-6.6-25.8-12.6-37.9-18.1M18.72 353c.34 2.1 1.03 4.8 2.88 8.4c5.75 11.3 20.09 27.8 46.74 42.6c23.89 13.3 46.86 28.4 85.06 56.4c-6-13.5-14.4-30.1-24.5-47.7l-.3-.6C92.89 388 46.1 366 18.72 353" vector-effect="non-scaling-stroke" stroke="none"/>
        </g>
      </g>
      <text id="ITEM_1_HEAD" x="0.0" y="-80.0" text-anchor="middle" font-weight="bold" font-size="36" fill="var(--primary-text)" data-bg-id="ITEM_1_BG" fill-opacity="1.0" style="font-size: 30px; font-family: Inter, Segoe UI, Kalam, Roboto, Helvetica, Arial, sans-serif; font-weight: 700; letter-spacing:-0.4px;" data-final-font-size="30">
        <tspan x="0.0" dy="34.80px">Medieval Miracle</tspan>
      </text>
      <rect id="ITEM_1_HEAD_FRAME" x="-180" y="-80" width="360" height="45" fill="none"/>
    </g>
    <g transform="translate(210.0, 720)">
      <rect id="ITEM_2_BG" x="-180.0" y="-150" width="360" height="390" rx="24" fill="var(--accent-6)" fill-opacity="1.0" stroke="var(--accent-1)" stroke-width="2.6"/>
      <text id="ITEM_2_HEAD" x="0.0" y="8.0" text-anchor="middle" font-weight="bold" font-size="30" fill="var(--inverse-text)" data-bg-id="ITEM_2_BG" fill-opacity="1.0" style="font-size: 30px; font-family: Inter, Segoe UI, Kalam, Roboto, Helvetica, Arial, sans-serif; font-weight: 700; letter-spacing:-0.4px;" data-final-font-size="30">
        <tspan x="0.0" dy="49.55px">Pilgrimage Growth</tspan>
      </text>
      <rect id="ITEM_2_HEAD_FRAME" x="-150.0" y="8" width="300" height="70" fill="none"/>
      <text id="ITEM_2_BODY" x="0.0" y="82.0" text-anchor="middle" font-size="23" fill="var(--inverse-text)" opacity="0.94" data-bg-id="ITEM_2_BG" data-max-lines="5" style="font-size: 26px; font-family: Inter, Segoe UI, Kalam, Roboto, Helvetica, Arial, sans-serif; font-weight: 400;" data-final-font-size="26">
        <tspan x="0.0" dy="28.35px">Shrine becomes a major</tspan>
        <tspan x="0.0" dy="29.90px">destination for miracle-</tspan>
        <tspan x="0.0" dy="29.90px">seeking travelers</tspan>
      </text>
      <rect id="ITEM_2_BODY_FRAME" x="-174" y="82" width="348" height="108" fill="none"/>
      <circle id="ITEM_2_PAD" cx="0" cy="-45.0" r="62" fill="var(--icon-pad-bg)" stroke="var(--background)" stroke-width="2" stroke-opacity="0.65" opacity="0.94" fill-opacity="0.9"/>
      <circle id="ITEM_2_PAD_INNER" cx="0" cy="-45.0" r="48.36" fill="var(--accent-6)" fill-opacity="0.22"/>
      <circle cx="0" cy="-45.0" r="49.6" fill="none" stroke="var(--accent-1)" stroke-width="3" stroke-dasharray="6 4"/>
      <g id="ITEM_2_ICON" transform="translate(-48.0, -93.0)" data-icon-size="96" stroke-dasharray="6 4">
        <g transform="translate(-4.45830508474577,-4.45830508474577) scale(4.371525423728814)" vector-effect="non-scaling-stroke" stroke-width="2.86" stroke-linecap="round" stroke-linejoin="round" stroke-opacity="1.0">
          <path d="M3.85 8.62a4 4 0 0 1 4.78-4.77 4 4 0 0 1 6.74 0 4 4 0 0 1 4.78 4.78 4 4 0 0 1 0 6.74 4 4 0 0 1-4.77 4.78 4 4 0 0 1-6.75 0 4 4 0 0 1-4.78-4.77 4 4 0 0 1 0-6.76Z" vector-effect="non-scaling-stroke" fill="none" stroke="#f1f5f9"/>
        </g>
      </g>
    </g>
    <g transform="translate(693.3, 720)">
      <rect id="ITEM_3_BG" x="-180.0" y="-150" width="360" height="390" rx="24" fill="var(--accent-1)" fill-opacity="1.0" stroke="var(--accent-2)" stroke-width="2.6"/>
      <text id="ITEM_3_HEAD" x="0.0" y="8.0" text-anchor="middle" font-weight="bold" font-size="30" fill="var(--primary-text)" data-bg-id="ITEM_3_BG" fill-opacity="1.0" style="font-size: 30px; font-family: Inter, Segoe UI, Kalam, Roboto, Helvetica, Arial, sans-serif; font-weight: 700; letter-spacing:-0.4px;" data-final-font-size="30">
        <tspan x="0.0" dy="49.55px">Royal Visit</tspan>
      </text>
      <rect id="ITEM_3_HEAD_FRAME" x="-150.0" y="8" width="300" height="70" fill="none"/>
      <text id="ITEM_3_BODY" x="0.0" y="82.0" text-anchor="middle" font-size="23" fill="var(--primary-text)" opacity="0.94" data-bg-id="ITEM_3_BG" data-max-lines="5" style="font-size: 26px; font-family: Inter, Segoe UI, Kalam, Roboto, Helvetica, Arial, sans-serif; font-weight: 400;" data-final-font-size="26">
        <tspan x="0.0" dy="28.35px">Henry VIII visits the site</tspan>
        <tspan x="0.0" dy="29.90px">during its peak</tspan>
        <tspan x="0.0" dy="29.90px">devotional period</tspan>
      </text>
      <rect id="ITEM_3_BODY_FRAME" x="-174" y="82" width="348" height="108" fill="none"/>
      <circle id="ITEM_3_PAD" cx="0" cy="-45.0" r="62" fill="var(--icon-pad-bg)" stroke="var(--background)" stroke-width="2" stroke-opacity="0.65" opacity="0.94" fill-opacity="0.9"/>
      <circle id="ITEM_3_PAD_INNER" cx="0" cy="-45.0" r="48.36" fill="var(--accent-1)" fill-opacity="0.22"/>
      <circle cx="0" cy="-45.0" r="49.6" fill="none" stroke="var(--accent-2)" stroke-width="3" stroke-dasharray="6 4"/>
      <g id="ITEM_3_ICON" transform="translate(-48.0, -93.0)" data-icon-size="96" stroke-dasharray="6 4">
        <g transform="translate(-7.268571428571428,-15.904285714285713) scale(3.454285714285714)">
          <path fill-rule="evenodd" clip-rule="evenodd" d="M6.93979 23.5C6.93979 24.3726 6.23239 25.08 5.35979 25.08C4.48718 25.08 3.77979 24.3726 3.77979 23.5C3.77979 22.6274 4.48718 21.92 5.35979 21.92C6.23239 21.92 6.93979 22.6274 6.93979 23.5ZM28.1998 23.5C28.1998 24.3726 27.4924 25.08 26.6198 25.08C25.7472 25.08 25.0398 24.3726 25.0398 23.5C25.0398 22.6274 25.7472 21.92 26.6198 21.92C27.4924 21.92 28.1998 22.6274 28.1998 23.5Z" fill="#00A6ED"/>
          <path fill-rule="evenodd" clip-rule="evenodd" d="M10.2498 13.27L13.4298 17.54L6.83984 18.3L8.95984 13.41C8.44984 13.21 8.08984 12.71 8.08984 12.13C8.08984 11.37 8.70984 10.75 9.46984 10.75C10.2298 10.75 10.8498 11.37 10.8498 12.13C10.8498 12.61 10.6098 13.02 10.2498 13.27ZM23.01 13.41L25.13 18.3L18.54 17.54L21.72 13.27C21.36 13.02 21.12 12.6 21.12 12.13C21.12 11.37 21.74 10.75 22.5 10.75C23.26 10.75 23.88 11.37 23.88 12.13C23.88 12.71 23.52 13.21 23.01 13.41Z" fill="#E19747"/>
          <path d="M29.98 13.09C29.98 12.33 29.36 11.71 28.6 11.71C27.84 11.71 27.22 12.33 27.22 13.09C27.22 13.37 27.31 13.64 27.45 13.85C27.23 13.85 27.01 13.9 26.8 14.04L22.87 16.58C22.35 16.91 21.67 16.79 21.3 16.29L16.93 10.36C16.9 10.31 16.86 10.27 16.82 10.23C17.35 9.94001 17.71 9.37 17.71 8.72C17.71 7.77 16.94 7 15.99 7C15.04 7 14.27 7.77 14.27 8.72C14.27 9.37 14.63 9.94001 15.16 10.23C15.12 10.27 15.08 10.31 15.05 10.36L10.68 16.29C10.32 16.79 9.63 16.91 9.11 16.58L5.18 14.04C4.97 13.9 4.75 13.85 4.53 13.85C4.68 13.63 4.76 13.37 4.76 13.09C4.76 12.33 4.14 11.71 3.38 11.71C2.62 11.71 2 12.33 2 13.09C2 13.85 2.62 14.47 3.38 14.47C3.43 14.47 3.48 14.47 3.52 14.46C3.39 14.69 3.34 14.96 3.4 15.25L6 28.22C6.19 29.15 7.01 29.82 7.96 29.82H10.03H15.99H21.95H24.02C24.97 29.82 25.79 29.15 25.98 28.22L28.58 15.25C28.64 14.96 28.58 14.68 28.46 14.46C28.51 14.46 28.56 14.47 28.6 14.47C29.36 14.47 29.98 13.85 29.98 13.09Z" fill="#FFB02E"/>
          <path d="M15.99 26C17.3707 26 18.49 24.8807 18.49 23.5C18.49 22.1193 17.3707 21 15.99 21C14.6093 21 13.49 22.1193 13.49 23.5C13.49 24.8807 14.6093 26 15.99 26Z" fill="#00A6ED"/>
          <path fill-rule="evenodd" clip-rule="evenodd" d="M11 23.5C11 24.3284 10.3284 25 9.5 25C8.67157 25 8 24.3284 8 23.5C8 22.6716 8.67157 22 9.5 22C10.3284 22 11 22.6716 11 23.5ZM24 23.5C24 24.3284 23.3284 25 22.5 25C21.6716 25 21 24.3284 21 23.5C21 22.6716 21.6716 22 22.5 22C23.3284 22 24 22.6716 24 23.5Z" fill="#F8312F"/>
        </g>
      </g>
    </g>
    <g transform="translate(1226.7, 720)">
      <rect id="ITEM_4_BG" x="-180.0" y="-150" width="360" height="390" rx="24" fill="var(--accent-2)" fill-opacity="1.0" stroke="var(--accent-3)" stroke-width="2.6"/>
      <text id="ITEM_4_HEAD" x="0.0" y="8.0" text-anchor="middle" font-weight="bold" font-size="30" fill="var(--inverse-text)" data-bg-id="ITEM_4_BG" fill-opacity="1.0" style="font-size: 30px; font-family: Inter, Segoe UI, Kalam, Roboto, Helvetica, Arial, sans-serif; font-weight: 700; letter-spacing:-0.4px;" data-final-font-size="30">
        <tspan x="0.0" dy="49.55px">Devil Imagery</tspan>
      </text>
      <rect id="ITEM_4_HEAD_FRAME" x="-150.0" y="8" width="300" height="70" fill="none"/>
      <text id="ITEM_4_BODY" x="0.0" y="82.0" text-anchor="middle" font-size="23" fill="var(--inverse-text)" opacity="0.94" data-bg-id="ITEM_4_BG" data-max-lines="5" style="font-size: 26px; font-family: Inter, Segoe UI, Kalam, Roboto, Helvetica, Arial, sans-serif; font-weight: 400;" data-final-font-size="26">
        <tspan x="0.0" dy="34.33px">The famous devil in a boot</tspan>
        <tspan x="0.0" dy="29.90px">becomes a primary icon</tspan>
      </text>
      <rect id="ITEM_4_BODY_FRAME" x="-174" y="82" width="348" height="108" fill="none"/>
      <circle id="ITEM_4_PAD" cx="0" cy="-45.0" r="62" fill="var(--icon-pad-bg)" stroke="var(--background)" stroke-width="2" stroke-opacity="0.65" opacity="0.94" fill-opacity="0.9"/>
      <circle id="ITEM_4_PAD_INNER" cx="0" cy="-45.0" r="48.36" fill="var(--accent-2)" fill-opacity="0.22"/>
      <circle cx="0" cy="-45.0" r="49.6" fill="none" stroke="var(--accent-3)" stroke-width="3" stroke-dasharray="6 4"/>
      <g id="ITEM_4_ICON" transform="translate(-48.0, -93.0)" data-icon-size="96" stroke-dasharray="6 4">
        <g transform="translate(-9.628999999999994,-3.583999999999999) scale(0.20149999999999998)" vector-effect="non-scaling-stroke" fill="#f1f5f9" fill-opacity="1.0" stroke="none">
          <path fill="#f1f5f9" d="M230.313 18.22c-38.374 0-65.98 2.768-85.032 8.5c-19.05 5.73-29.247 13.7-35.874 25.468c-12.14 21.562-10.572 61.474-8.375 120.593c19.884-8.89 47.444-11.333 78.19-10.905c35.384.493 74.694 5.72 109.31 14.375c18.682-46.793 28.3-91.058 38-135.344c.553 43.798.98 87.61-9.655 131.406c26.36 9.144 45.587 23.717 56.53 39.438c11.877-31.154 20.094-58.353 23.626-81.094c4.292-27.623 1.972-48.605-6.874-64.406c-8.846-15.8-24.57-27.567-50.656-35.75c-26.087-8.183-62.19-12.28-109.188-12.28zM171.97 180.53c-9.123.087-17.842.61-25.94 1.47c-9.856 77.77-11.774 156.56-4.468 254.563c26.544 23.08 66.735 31.19 105.47 40.906c-32.55 1.308-65.25.195-98.5-9.595c8.33 17.868 23.528 25.03 44 25.03H450.5c37.102 0 22.515-40.208 3.094-66.936c-22.223-30.585-65.654-34.498-101.22-58.533l.126.22c-38.968-15.458-77.94.41-116.906 31.562c20.12-29.928 48.293-56.017 80.187-56.47c3.742-.053 7.544.276 11.376.97a242 242 0 0 1-7.656-24.376c-33.092-22.49-73.682-16.99-118 2.5c22.384-19.514 49.346-35.1 75.438-35.625c13.233-.267 26.238 3.352 38.312 12.28c-5.426-35.452-1.14-68.74 9.438-102.47a118 118 0 0 0-14.782-6.31l-12.375-2.126l-2.717 9.656c-35.354-9.928-78.42-16.166-115.875-16.688a301 301 0 0 0-6.97-.03z" vector-effect="non-scaling-stroke" stroke="none"/>
        </g>
      </g>
    </g>
    <g transform="translate(1710.0, 720)">
      <rect id="ITEM_5_BG" x="-180.0" y="-150" width="360" height="390" rx="24" fill="var(--accent-3)" fill-opacity="1.0" stroke="var(--accent-4)" stroke-width="2.6"/>
      <text id="ITEM_5_HEAD" x="0.0" y="8.0" text-anchor="middle" font-weight="bold" font-size="30" fill="var(--primary-text)" data-bg-id="ITEM_5_BG" fill-opacity="1.0" style="font-size: 30px; font-family: Inter, Segoe UI, Kalam, Roboto, Helvetica, Arial, sans-serif; font-weight: 700; letter-spacing:-0.4px;" data-final-font-size="30">
        <tspan x="0.0" dy="49.55px">Modern Heritage</tspan>
      </text>
      <rect id="ITEM_5_HEAD_FRAME" x="-150.0" y="8" width="300" height="70" fill="none"/>
      <text id="ITEM_5_BODY" x="0.0" y="82.0" text-anchor="middle" font-size="23" fill="var(--primary-text)" opacity="0.94" data-bg-id="ITEM_5_BG" data-max-lines="5" style="font-size: 26px; font-family: Inter, Segoe UI, Kalam, Roboto, Helvetica, Arial, sans-serif; font-weight: 400;" data-final-font-size="26">
        <tspan x="0.0" dy="34.33px">Site is preserved as a</tspan>
        <tspan x="0.0" dy="29.90px">landmark in heritage records</tspan>
      </text>
      <rect id="ITEM_5_BODY_FRAME" x="-174" y="82" width="348" height="108" fill="none"/>
      <circle id="ITEM_5_PAD" cx="0" cy="-45.0" r="62" fill="var(--icon-pad-bg)" stroke="var(--background)" stroke-width="2" stroke-opacity="0.65" opacity="0.94" fill-opacity="0.9"/>
      <circle id="ITEM_5_PAD_INNER" cx="0" cy="-45.0" r="48.36" fill="var(--accent-3)" fill-opacity="0.22"/>
      <circle cx="0" cy="-45.0" r="49.6" fill="none" stroke="var(--accent-4)" stroke-width="3" stroke-dasharray="6 4"/>
      <g id="ITEM_5_ICON" transform="translate(-48.0, -93.0)" data-icon-size="96" stroke-dasharray="6 4">
        <g transform="translate(-2.7383606557377043,1.2255737704918062) scale(4.228196721311475)" vector-effect="non-scaling-stroke" fill="#f1f5f9" fill-opacity="1.0" stroke="none">
          <path fill="#f1f5f9" d="M18.5 1.15c-.53 0-1.04.19-1.43.58l-5.81 5.82l5.65 5.65l5.82-5.81c.77-.78.77-2.04 0-2.83l-2.84-2.83c-.39-.39-.89-.58-1.39-.58M10.3 8.5l-5.96 5.96c-.78.78-.78 2.04.02 2.85C3.14 18.54 1.9 19.77.67 21h5.66l.86-.86c.78.76 2.03.75 2.81-.02l5.95-5.96" vector-effect="non-scaling-stroke" stroke="none"/>
        </g>
      </g>
    </g>
  </g>
</svg>
