<?xml version='1.0' encoding='utf-8'?>
<svg xmlns="http://www.w3.org/2000/svg" width="100%" height="100%" viewBox="0 0 1920 1080" data-theme="light">
  <style>
        @font-face {
            font-family: 'Inter';
            src: url('assets/fonts/Inter-Regular.ttf') format('truetype');
            font-weight: 400;
            font-style: normal;
            font-display: swap;
        }
        @font-face {
            font-family: 'Inter';
            src: url('assets/fonts/Inter-Bold.ttf') format('truetype');
            font-weight: 600;
            font-style: normal;
            font-display: swap;
        }
        @font-face {
            font-family: 'Inter';
            src: url('assets/fonts/Inter-Bold.ttf') format('truetype');
            font-weight: 800;
            font-style: normal;
            font-display: swap;
        }
        
:root {
    --background: #f8fafc;
    --panel: #ffffff;
    --primary-text: #0f172a;
    --muted-text: #64748b;
    --inverse-text: #ffffff;
    --border: #e2e8f0;
    --shadow-color: #000000;
    --icon-pad-bg: #1e293b;
    --art-glow: #0891b2;
    --art-glow-opacity: 0.10;
    --art-sheen: #ffffff;
    --art-sheen-opacity: 0.34;
    --art-shadow: #0f172a;
    --art-shadow-opacity: 0.14;
    --art-muted-line: #94a3b8;
    --art-panel-tint: #f1f5f9;
    --font-family: 'Inter', 'Segoe UI', 'Kalam', Roboto, Helvetica, Arial, sans-serif;
    --radius-xl: 16px;
    --font-family-headline: 'Inter', 'Segoe UI', 'Kalam', Roboto, Helvetica, Arial, sans-serif;
    --font-family-body: 'Inter', 'Segoe UI', 'Kalam', Roboto, Helvetica, Arial, sans-serif;
    --font-heading: 'Inter', 'Segoe UI', 'Kalam', Roboto, Helvetica, Arial, sans-serif;
    --font-body: 'Inter', 'Segoe UI', 'Kalam', Roboto, Helvetica, Arial, sans-serif;
    --font-size-h1: 56px;
    --font-size-h2: 40px;
    --font-size-h3: 28px;
    --font-size-body: 24px;
    --font-size-caption: 18px;
    --secondary-text: var(--muted-text);
    --panel-border: var(--border);
    --font-weight-normal: 400;
    --font-weight-medium: 500;
    --font-weight-semibold: 600;
    --font-weight-bold: 700;
    --spacing-gutter-pct: 0.07;
    --spacing-top-pct: 0.15;
    --spacing-bottom-pct: 0.07;
    --spacing-title-y-pct: 0.055;
    --accent-1: #0891b2;
    --accent-2: #db2777;
    --accent-3: #ca8a04;
    --accent-4: #65a30d;
    --accent-5: #ea580c;
    --accent-6: #9333ea;
}
:root[data-theme="dark"] {
    --background: #0f172a;
    --panel: #1e293b;
    --primary-text: #f1f5f9;
    --muted-text: #94a3b8;
    --inverse-text: #0f172a;
    --border: #334155;
    --shadow-color: #000000;
    --icon-pad-bg: #1e293b;
    --art-glow: #7dd3fc;
    --art-glow-opacity: 0.18;
    --art-sheen: #ffffff;
    --art-sheen-opacity: 0.18;
    --art-shadow: #000000;
    --art-shadow-opacity: 0.28;
    --art-muted-line: #64748b;
    --art-panel-tint: #1e293b;
    --accent-1: #22d3ee;
    --accent-2: #f472b6;
    --accent-3: #facc15;
    --accent-4: #a3e635;
    --accent-5: #fb923c;
    --accent-6: #c084fc;
}
:root[data-theme="light"] {
    --background: #f8fafc;
    --panel: #ffffff;
    --primary-text: #0f172a;
    --muted-text: #64748b;
    --inverse-text: #ffffff;
    --border: #e2e8f0;
    --shadow-color: #000000;
    --icon-pad-bg: #1e293b;
    --art-glow: #0891b2;
    --art-glow-opacity: 0.10;
    --art-sheen: #ffffff;
    --art-sheen-opacity: 0.34;
    --art-shadow: #0f172a;
    --art-shadow-opacity: 0.14;
    --art-muted-line: #94a3b8;
    --art-panel-tint: #f1f5f9;
    --accent-1: #0891b2;
    --accent-2: #db2777;
    --accent-3: #ca8a04;
    --accent-4: #65a30d;
    --accent-5: #ea580c;
    --accent-6: #9333ea;
}</style>
  <rect x="0" y="0" width="1.92E+3" height="1.08E+3" fill="#252a34" stroke="none" id="programmatic_background"/>
  <line id="HEADER_DECOR" x1="960.0" x2="1080.0" y1="105.0" y2="105.0" stroke="var(--accent-1)" stroke-width="6" stroke-linecap="round"/>
  <defs>
    <filter id="svg0a88ebf2-glow" x="-20%" y="-20%" width="140%" height="140%">
      <feGaussianBlur stdDeviation="8" result="blur"/>
      <feComposite in="SourceGraphic" in2="blur" operator="over"/>
    </filter>
    <filter id="svg0a88ebf2-drop-shadow" x="-10%" y="-10%" width="120%" height="120%">
      <feDropShadow dx="0" dy="8" stdDeviation="6" flood-color="#000000" flood-opacity="0.25"/>
    </filter>
    <linearGradient id="svg0a88ebf2-bg-grad" x1="0%" y1="0%" x2="100%" y2="100%">
      <stop offset="0%" stop-color="var(--background)"/>
      <stop offset="100%" stop-color="var(--panel)"/>
    </linearGradient>
    <pattern id="svg0a88ebf2-dot-grid" x="0" y="0" width="40" height="40" patternUnits="userSpaceOnUse">
      <circle cx="2" cy="2" r="1.5" fill="var(--muted-text)" opacity="0.1"/>
    </pattern>
    <linearGradient id="svg0a88ebf2-fold_0" x1="0" y1="0" x2="0" y2="1">
      <stop offset="0%" stop-color="var(--accent-1)"/>
      <stop offset="100%" stop-color="var(--accent-2)"/>
    </linearGradient>
    <linearGradient id="svg0a88ebf2-fold_1" x1="0" y1="0" x2="0" y2="1">
      <stop offset="0%" stop-color="var(--accent-2)"/>
      <stop offset="100%" stop-color="var(--accent-3)"/>
    </linearGradient>
    <linearGradient id="svg0a88ebf2-fold_2" x1="0" y1="0" x2="0" y2="1">
      <stop offset="0%" stop-color="var(--accent-3)"/>
      <stop offset="100%" stop-color="var(--accent-4)"/>
    </linearGradient>
    <radialGradient id="svg0a88ebf2-universal-edge-vignette" cx="50%" cy="50%" r="72%">
      <stop offset="0%" stop-color="var(--background)" stop-opacity="0"/>
      <stop offset="72%" stop-color="var(--background)" stop-opacity="0.12"/>
      <stop offset="100%" stop-color="var(--primary-text)" stop-opacity="0.08"/>
    </radialGradient>
    <linearGradient id="svg0a88ebf2-universal-surface-sheen" x1="0%" y1="0%" x2="100%" y2="100%">
      <stop offset="0%" stop-color="var(--art-sheen)" stop-opacity="var(--art-sheen-opacity)"/>
      <stop offset="46%" stop-color="var(--art-sheen)" stop-opacity="0.035"/>
      <stop offset="100%" stop-color="var(--art-panel-tint)" stop-opacity="0.14"/>
    </linearGradient>
    <radialGradient id="svg0a88ebf2-universal-icon-aura" cx="50%" cy="42%" r="64%">
      <stop offset="0%" stop-color="var(--art-glow)" stop-opacity="var(--art-glow-opacity)"/>
      <stop offset="100%" stop-color="var(--background)" stop-opacity="0"/>
    </radialGradient>
    <filter id="svg0a88ebf2-text-glow" x="-20%" y="-20%" width="140%" height="140%">
      <feDropShadow dx="0" dy="0" stdDeviation="2" flood-color="#000000" flood-opacity="0.4"/>
    </filter>
    <filter id="svg0a88ebf2-shadow" x="-30%" y="-30%" width="160%" height="160%">
      <feDropShadow dx="0" dy="2" stdDeviation="3" flood-color="#000000" flood-opacity="0.08"/>
      <feDropShadow dx="0" dy="6" stdDeviation="10" flood-color="#000000" flood-opacity="0.12"/>
    </filter>
    <marker id="svg0a88ebf2-arrowhead" markerWidth="10" markerHeight="7" refX="9" refY="3.5" orient="auto" markerUnits="strokeWidth">
      <polygon points="0 0, 10 3.5, 0 7" fill="var(--muted-text)" opacity="0.6"/>
    </marker>
  </defs>
  <rect width="100%" height="100%" fill="var(--background)" id="CANVAS_BG"/>
  <rect id="UNIVERSAL_EDGE_VIGNETTE" width="100%" height="100%" fill="url(#svg0a88ebf2-universal-edge-vignette)" opacity="0.62"/>
  <rect width="1920" height="1080" fill="url(#svg0a88ebf2-bg-grad)"/>
  <rect width="1920" height="1080" fill="url(#svg0a88ebf2-dot-grid)"/>
  <rect id="TITLE_FRAME" x="134" y="40" width="1652" height="70" fill="none" pointer-events="none"/>
  <text id="TITLE" x="960.0" y="59" fill="#0f172a" font-family="var(--font-heading)" font-size="48" font-weight="900" text-anchor="middle" style="font-size: 60px; font-family: Inter, Segoe UI, Kalam, Roboto, Helvetica, Arial, sans-serif; font-weight: 700; letter-spacing:-1.2px;" data-final-font-size="60">
    <tspan x="960.0" dy="68.00px">The Maiden's Folklore Journey</tspan>
  </text>
  <g id="DIAGRAM_MAIN">
    <!-- Fold 0 -->
    <polygon points="530.0,290.0 530.0,390.0 430.0,790.0 430.0,690.0" fill="url(#svg0a88ebf2-fold_0)"/>
    <polygon points="530.0,290.0 530.0,390.0 430.0,790.0 430.0,690.0" fill="#000" opacity="0.3"/>
    <!-- Fold 1 -->
    <polygon points="1010.0,690.0 1010.0,790.0 910.0,390.0 910.0,290.0" fill="url(#svg0a88ebf2-fold_1)"/>
    <polygon points="1010.0,690.0 1010.0,790.0 910.0,390.0 910.0,290.0" fill="#000" opacity="0.3"/>
    <!-- Fold 2 -->
    <polygon points="1490.0,290.0 1490.0,390.0 1390.0,790.0 1390.0,690.0" fill="url(#svg0a88ebf2-fold_2)"/>
    <polygon points="1490.0,290.0 1490.0,390.0 1390.0,790.0 1390.0,690.0" fill="#000" opacity="0.3"/>
    <!-- Ribbon Segment 1 -->
    <rect x="-50.0" y="290.0" width="580.0" height="100" rx="12" fill="var(--panel)" stroke="var(--accent-1)" stroke-width="4" filter="url(#svg0a88ebf2-drop-shadow)"/>
    <!-- Ribbon Segment 2 -->
    <rect x="430.0" y="690.0" width="580.0" height="100" rx="12" fill="var(--panel)" stroke="var(--accent-2)" stroke-width="4" filter="url(#svg0a88ebf2-drop-shadow)"/>
    <!-- Ribbon Segment 3 -->
    <rect x="910.0" y="290.0" width="580.0" height="100" rx="12" fill="var(--panel)" stroke="var(--accent-3)" stroke-width="4" filter="url(#svg0a88ebf2-drop-shadow)"/>
    <!-- Ribbon Segment 4 -->
    <rect x="1390.0" y="690.0" width="580.0" height="100" rx="12" fill="var(--panel)" stroke="var(--accent-4)" stroke-width="4" filter="url(#svg0a88ebf2-drop-shadow)"/>
    <circle id="ITEM_1_BORDER" cx="20.0" cy="340" r="34" fill="var(--background)" stroke="var(--accent-1)" stroke-width="3" filter="url(#svg0a88ebf2-glow)"/>
    <circle id="ITEM_1_STROKE" cx="20.0" cy="340" r="40" fill="transparent" stroke="var(--accent-5)" stroke-width="2" stroke-dasharray="4 4" stroke-opacity="1.0"/>
    <g id="ITEM_1_ICON" transform="translate(-4.0, 316)">
      <g transform="translate(-1.3559322033898304,-3.525423728813559) scale(1.4463276836158192)" vector-effect="non-scaling-stroke" fill="var(--accent-5)" fill-opacity="1.0" stroke="none">
        <path fill="var(--accent-5)" d="M9 6v5H7V7H5v4H3V9H1v12h2v-2h2v2h2v-2h2v2h2v-2h2v2h2v-2h2v2h2v-2h2v2h2V9h-2v2h-2V7h-2v4h-2V6h-2v5h-2V6zm-6 7h2v4H3zm4 0h2v4H7zm4 0h2v4h-2zm4 0h2v4h-2zm4 0h2v4h-2z" vector-effect="non-scaling-stroke" stroke="none"/>
      </g>
    </g>
    <circle id="ITEM_2_BORDER" cx="500.0" cy="740" r="34" fill="var(--background)" stroke="var(--accent-2)" stroke-width="3" filter="url(#svg0a88ebf2-glow)"/>
    <circle id="ITEM_2_STROKE" cx="500.0" cy="740" r="40" fill="transparent" stroke="var(--accent-6)" stroke-width="2" stroke-dasharray="4 4" stroke-opacity="1.0"/>
    <g id="ITEM_2_ICON" transform="translate(476.0, 716)">
      <g transform="translate(-4.723809523809525,-3.657142857142857) scale(1.6253968253968254)" vector-effect="non-scaling-stroke" stroke-width="2.10" stroke-linecap="round" stroke-linejoin="round" stroke-opacity="1.0">
        <path d="M12.4409 9.12717L11.0322 14.7618L15.9626 21.1008" stroke="var(--accent-6)" vector-effect="non-scaling-stroke" fill="none"/>
        <path d="M10.3278 18.2835L8.21484 21.1008" stroke="var(--accent-6)" vector-effect="non-scaling-stroke" fill="none"/>
        <path d="M8.21484 13.3532C8.21484 9.40889 11.0323 9.12714 12.4409 9.12717L13.8494 9.12714C14.0842 10.301 15.1172 12.7897 17.3711 13.3531" stroke="var(--accent-6)" vector-effect="non-scaling-stroke" fill="none"/>
        <path d="M13 7C14.1046 7 15 6.10457 15 5C15 3.89543 14.1046 3 13 3C11.8954 3 11 3.89543 11 5C11 6.10457 11.8954 7 13 7Z" stroke="var(--accent-6)" vector-effect="non-scaling-stroke" fill="none"/>
      </g>
    </g>
    <circle id="ITEM_3_BORDER" cx="980.0" cy="340" r="34" fill="var(--background)" stroke="var(--accent-3)" stroke-width="3" filter="url(#svg0a88ebf2-glow)"/>
    <circle id="ITEM_3_STROKE" cx="980.0" cy="340" r="40" fill="transparent" stroke="var(--accent-1)" stroke-width="2" stroke-dasharray="4 4" stroke-opacity="1.0"/>
    <g id="ITEM_3_ICON" transform="translate(956.0, 316)">
      <g transform="translate(-2.962962962962963,-2.962962962962963) scale(1.5802469135802468)" vector-effect="non-scaling-stroke" fill="var(--accent-1)" fill-opacity="1.0" stroke="none">
        <path fill="var(--accent-1)" d="M22 16H2v2h2v4h16v-4h2zm-11.56-1c-.25 0-.44-.19-.49-.44l-.38-3v-.06c0-.28.22-.5.5-.5H14c.27.04.46.29.43.56l-.38 3c-.05.25-.24.44-.49.44zM19 2l2.56 4.68c.04.1.05.21.05.32c0 .56-.45 1-1 1H19v7h-2V8h-4v2h-2V8H7v7H5V8H3.62a.998.998 0 0 1-.9-1.45L5 2z" vector-effect="non-scaling-stroke" stroke="none"/>
      </g>
    </g>
    <circle id="ITEM_4_BORDER" cx="1460.0" cy="740" r="34" fill="var(--background)" stroke="var(--accent-4)" stroke-width="3" filter="url(#svg0a88ebf2-glow)"/>
    <circle id="ITEM_4_STROKE" cx="1460.0" cy="740" r="40" fill="transparent" stroke="var(--accent-2)" stroke-width="2" stroke-dasharray="4 4" stroke-opacity="1.0"/>
    <g id="ITEM_4_ICON" transform="translate(1436.0, 716)">
      <g transform="translate(-2.2857142857142856,-2.2857142857142856) scale(1.1428571428571428)">
        <path d="M18.73 8.235H13.31C13.01 8.235 12.81 7.915 12.95 7.645L15.66 2.225C15.81 1.925 16.23 1.925 16.38 2.225L19.09 7.645C19.23 7.915 19.03 8.235 18.73 8.235ZM12.3476 20H3.65244C3.16703 20 2.85046 19.5829 3.07206 19.2266L7.41962 10.2933C7.66233 9.90224 8.33767 9.90224 8.58038 10.2933L12.9279 19.2266C13.1495 19.5829 12.833 20 12.3476 20ZM19.6524 20H28.3476C28.833 20 29.1495 19.5829 28.9279 19.2266L24.5804 10.2933C24.3377 9.90224 23.6623 9.90224 23.4196 10.2933L19.0721 19.2266C18.8505 19.5829 19.167 20 19.6524 20Z" fill="#F8312F"/>
        <path d="M19.391 7H18.9439C18.611 7 18.3256 7.26877 18.3351 7.60474C18.3446 7.95031 18.0688 8.22868 17.7263 8.22868H17.441C17.1081 8.22868 16.8227 7.95991 16.8322 7.62394C16.8417 7.27837 16.5659 7 16.2234 7H15.7763C15.4434 7 15.1581 7.26877 15.1676 7.60474C15.1771 7.95031 14.9012 8.22868 14.5588 8.22868H14.2734C13.9405 8.22868 13.6551 7.95991 13.6646 7.62394C13.6741 7.27837 13.3983 7 13.0559 7H12.6088C12.2759 7 12 7.27837 12 7.61434V8.22868V11.4252C12 11.7612 12.1671 12 12.5 12H13C12.4959 12 12 12 12 13V24H19.9998V13C20 12 19.5041 12 19 12H19.5C19.8329 12 19.9998 11.7612 19.9998 11.4252V8.22868V7.61434C20.0093 7.26878 19.7334 7 19.391 7Z" fill="#998EA4"/>
        <path d="M30 19.1976V19.5873L29.99 30H18.9573L15.9667 28.3026L12.9761 30H2V19.5873V19.1976V18.5988C2 18.2661 2.30989 18 2.65976 18H3.1296C3.47947 18 3.75937 18.2661 3.75937 18.5988C3.75937 18.9315 4.03927 19.1976 4.38915 19.1976H4.67904C5.02892 19.1976 5.30882 18.9315 5.30882 18.5988C5.30882 18.2661 5.58872 18 5.93859 18H6.39843C6.7483 18 7.0282 18.2661 7.0282 18.5988C7.0282 18.9315 7.3081 19.1976 7.65798 19.1976H7.95787C8.30775 19.1976 8.58765 18.9315 8.58765 18.5988C8.58765 18.2661 8.86755 18 9.21742 18H9.22742H9.67726H9.68725C10.0371 18 10.317 18.2661 10.317 18.5988C10.317 18.9315 10.5969 19.1976 10.9468 19.1976H11.2567C11.6066 19.1976 11.8865 18.9315 11.8865 18.5988C11.8865 18.2661 12.1664 18 12.5162 18H12.9761C13.326 18 13.6059 18.2661 13.6059 18.5988C13.6059 18.9315 13.8858 19.1976 14.2356 19.1976H14.5255C14.8754 19.1976 15.1553 18.9315 15.1553 18.5988C15.1553 18.2661 15.4352 18 15.7851 18H15.7951H16.2749H16.2849C16.6348 18 16.9147 18.2661 16.9147 18.5988C16.9147 18.9315 17.1946 19.1976 17.5444 19.1976H17.8343C18.1842 19.1976 18.4641 18.9315 18.4641 18.5988C18.4641 18.2661 18.744 18 19.0939 18H19.5537C19.9036 18 20.1835 18.2661 20.1835 18.5988C20.1835 18.9315 20.4634 19.1976 20.8133 19.1976H21.1032C21.4531 19.1976 21.733 18.9315 21.733 18.5988C21.733 18.2661 22.0129 18 22.3627 18H22.3727H22.8226H22.8326C23.1824 18 23.4623 18.2661 23.4623 18.5988C23.4623 18.9315 23.7422 19.1976 24.0921 19.1976H24.382C24.7319 19.1976 25.0118 18.9315 25.0118 18.5988C25.0118 18.2661 25.2917 18 25.6416 18H26.1014C26.4513 18 26.7312 18.2661 26.7312 18.5988C26.7312 18.9315 27.0111 19.1976 27.3609 19.1976H27.6508C28.0007 19.1976 28.2806 18.9315 28.2806 18.5988C28.2806 18.2661 28.5605 18 28.9104 18H29.3702C29.7201 18 30 18.2661 30 18.5988V19.1976Z" fill="#B4ACBC"/>
        <path d="M15 14H16.9873H17V13C17 12.443 16.5443 12 16 12C15.443 12 15 12.4557 15 13V14ZM13 30H18.9907V26.7692C18.9907 24.9888 17.66 24 16 24C14.3493 24 13 24.9788 13 26.7692V30Z" fill="#5235A6"/>
        <path d="M7.5 7.30591V9.19016C7.5 9.40494 7.71212 9.55139 7.91414 9.48305L10.2632 8.36557C10.3582 8.32038 10.3583 8.18523 10.2634 8.13989L7.90404 7.01302C7.70202 6.95444 7.5 7.10088 7.5 7.30591ZM23.5 7.30591V9.19016C23.5 9.40494 23.7121 9.55139 23.9141 9.48305L26.2632 8.36557C26.3582 8.32038 26.3583 8.18523 26.2634 8.13989L23.904 7.01302C23.702 6.95444 23.5 7.10088 23.5 7.30591Z" fill="#26C9FC"/>
      </g>
    </g>
    <!-- Node 1 Text -->
    <rect id="ITEM_1_HEAD_FRAME" x="40.0" y="165" width="400" height="35" fill="none" pointer-events="none"/>
    <rect id="ITEM_1_BODY_FRAME" x="50" y="200" width="380" height="120" fill="none" pointer-events="none"/>
    <rect id="ITEM_1_TEXT_BG" x="22.0" y="149.0" width="436.0" height="187.0" rx="22" fill="var(--panel)" fill-opacity="0.94" stroke="var(--primary-text)" stroke-opacity="0.12" stroke-width="1.5"/>
    <text id="ITEM_1_HEAD" data-bg-id="ITEM_1_TEXT_BG" x="240.0" y="165.0" fill="var(--primary-text)" font-family="var(--font-heading)" font-size="26" font-weight="bold" text-anchor="middle" fill-opacity="1.0" style="font-size: 30px; font-family: Inter, Segoe UI, Kalam, Roboto, Helvetica, Arial, sans-serif; font-weight: 700; letter-spacing:-0.4px;" data-final-font-size="30">
      <tspan x="240.0" dy="25.75px">Castle Confinement</tspan>
    </text>
    <text id="ITEM_1_BODY" data-bg-id="ITEM_1_TEXT_BG" x="240.0" y="200.0" fill="var(--primary-text)" font-family="var(--font-body)" font-size="20" opacity="0.8" text-anchor="middle" style="font-size: 26px; font-family: Inter, Segoe UI, Kalam, Roboto, Helvetica, Arial, sans-serif; font-weight: 400;" data-final-font-size="26">
      <tspan x="240.0" dy="32.84px">A royal woman imprisoned</tspan>
      <tspan x="240.0" dy="29.90px">for loving below her rank</tspan>
    </text>
    <!-- Node 2 Text -->
    <rect id="ITEM_2_HEAD_FRAME" x="520.0" y="810.0" width="400" height="40" fill="none" pointer-events="none"/>
    <rect id="ITEM_2_BODY_FRAME" x="530" y="850.0" width="380" height="140" fill="none" pointer-events="none"/>
    <rect id="ITEM_2_TEXT_BG" x="502.0" y="794.0" width="436.0" height="212.0" rx="22" fill="var(--panel)" fill-opacity="0.94" stroke="var(--primary-text)" stroke-opacity="0.12" stroke-width="1.5"/>
    <text id="ITEM_2_HEAD" data-bg-id="ITEM_2_TEXT_BG" x="720.0" y="810.0" fill="var(--accent-6)" font-family="var(--font-heading)" font-size="26" font-weight="bold" text-anchor="middle" fill-opacity="1.0" style="font-size: 30px; font-family: Inter, Segoe UI, Kalam, Roboto, Helvetica, Arial, sans-serif; font-weight: 700; letter-spacing:-0.4px;" data-final-font-size="30">
      <tspan x="720.0" dy="28.25px">Secret Walk</tspan>
    </text>
    <text id="ITEM_2_BODY" data-bg-id="ITEM_2_TEXT_BG" x="720.0" y="850.0" fill="var(--primary-text)" font-family="var(--font-body)" font-size="20" opacity="0.8" text-anchor="middle" style="font-size: 26px; font-family: Inter, Segoe UI, Kalam, Roboto, Helvetica, Arial, sans-serif; font-weight: 400;" data-final-font-size="26">
      <tspan x="720.0" dy="36.84px">Allowed passage through the</tspan>
      <tspan x="720.0" dy="29.90px">Glen of Care to hills</tspan>
    </text>
    <!-- Node 3 Text -->
    <rect id="ITEM_3_HEAD_FRAME" x="1000.0" y="165" width="400" height="35" fill="none" pointer-events="none"/>
    <rect id="ITEM_3_BODY_FRAME" x="1010" y="200" width="380" height="120" fill="none" pointer-events="none"/>
    <rect id="ITEM_3_TEXT_BG" x="982.0" y="149.0" width="436.0" height="187.0" rx="22" fill="var(--panel)" fill-opacity="0.94" stroke="var(--primary-text)" stroke-opacity="0.12" stroke-width="1.5"/>
    <text id="ITEM_3_HEAD" data-bg-id="ITEM_3_TEXT_BG" x="1200.0" y="165.0" fill="var(--primary-text)" font-family="var(--font-heading)" font-size="26" font-weight="bold" text-anchor="middle" fill-opacity="1.0" style="font-size: 30px; font-family: Inter, Segoe UI, Kalam, Roboto, Helvetica, Arial, sans-serif; font-weight: 700; letter-spacing:-0.4px;" data-final-font-size="30">
      <tspan x="1200.0" dy="25.75px">Maiden's Well</tspan>
    </text>
    <text id="ITEM_3_BODY" data-bg-id="ITEM_3_TEXT_BG" x="1200.0" y="200.0" fill="var(--primary-text)" font-family="var(--font-body)" font-size="20" opacity="0.8" text-anchor="middle" style="font-size: 26px; font-family: Inter, Segoe UI, Kalam, Roboto, Helvetica, Arial, sans-serif; font-weight: 400;" data-final-font-size="26">
      <tspan x="1200.0" dy="32.84px">A small deep spring between</tspan>
      <tspan x="1200.0" dy="29.90px">Hillfoot and Whitewisp</tspan>
    </text>
    <!-- Node 4 Text -->
    <rect id="ITEM_4_HEAD_FRAME" x="1480.0" y="810.0" width="400" height="40" fill="none" pointer-events="none"/>
    <rect id="ITEM_4_BODY_FRAME" x="1490" y="850.0" width="380" height="140" fill="none" pointer-events="none"/>
    <rect id="ITEM_4_TEXT_BG" x="1462.0" y="794.0" width="436.0" height="212.0" rx="22" fill="var(--panel)" fill-opacity="0.94" stroke="var(--primary-text)" stroke-opacity="0.12" stroke-width="1.5"/>
    <text id="ITEM_4_HEAD" data-bg-id="ITEM_4_TEXT_BG" x="1680.0" y="810.0" fill="var(--accent-2)" font-family="var(--font-heading)" font-size="26" font-weight="bold" text-anchor="middle" fill-opacity="1.0" style="font-size: 30px; font-family: Inter, Segoe UI, Kalam, Roboto, Helvetica, Arial, sans-serif; font-weight: 700; letter-spacing:-0.4px;" data-final-font-size="30">
      <tspan x="1680.0" dy="28.25px">Maiden Castle</tspan>
    </text>
    <text id="ITEM_4_BODY" data-bg-id="ITEM_4_TEXT_BG" x="1680.0" y="850.0" fill="var(--primary-text)" font-family="var(--font-body)" font-size="20" opacity="0.8" text-anchor="middle" style="font-size: 26px; font-family: Inter, Segoe UI, Kalam, Roboto, Helvetica, Arial, sans-serif; font-weight: 400;" data-final-font-size="26">
      <tspan x="1680.0" dy="36.84px">A rounded hillock near the</tspan>
      <tspan x="1680.0" dy="29.90px">Glen Quey pass</tspan>
    </text>
  </g>
</svg>
