<?xml version='1.0' encoding='utf-8'?>
<svg xmlns="http://www.w3.org/2000/svg" width="1920" height="1080" viewBox="0 0 1920 1080" data-theme="dark">
  <style>
        @font-face {
            font-family: 'Inter';
            src: url('assets/fonts/Inter-Regular.ttf') format('truetype');
            font-weight: 400;
            font-style: normal;
            font-display: swap;
        }
        @font-face {
            font-family: 'Inter';
            src: url('assets/fonts/Inter-Bold.ttf') format('truetype');
            font-weight: 600;
            font-style: normal;
            font-display: swap;
        }
        @font-face {
            font-family: 'Inter';
            src: url('assets/fonts/Inter-Bold.ttf') format('truetype');
            font-weight: 800;
            font-style: normal;
            font-display: swap;
        }
        
:root {
    --background: #0f172a;
    --panel: #1e293b;
    --primary-text: #f1f5f9;
    --muted-text: #94a3b8;
    --inverse-text: #0f172a;
    --border: #334155;
    --shadow-color: #000000;
    --icon-pad-bg: #1e293b;
    --art-glow: #7dd3fc;
    --art-glow-opacity: 0.18;
    --art-sheen: #ffffff;
    --art-sheen-opacity: 0.18;
    --art-shadow: #000000;
    --art-shadow-opacity: 0.28;
    --art-muted-line: #64748b;
    --art-panel-tint: #1e293b;
    --font-family: 'Inter', 'Segoe UI', 'Kalam', Roboto, Helvetica, Arial, sans-serif;
    --radius-xl: 16px;
    --font-family-headline: 'Inter', 'Segoe UI', 'Kalam', Roboto, Helvetica, Arial, sans-serif;
    --font-family-body: 'Inter', 'Segoe UI', 'Kalam', Roboto, Helvetica, Arial, sans-serif;
    --font-heading: 'Inter', 'Segoe UI', 'Kalam', Roboto, Helvetica, Arial, sans-serif;
    --font-body: 'Inter', 'Segoe UI', 'Kalam', Roboto, Helvetica, Arial, sans-serif;
    --font-size-h1: 56px;
    --font-size-h2: 40px;
    --font-size-h3: 28px;
    --font-size-body: 24px;
    --font-size-caption: 18px;
    --secondary-text: var(--muted-text);
    --panel-border: var(--border);
    --font-weight-normal: 400;
    --font-weight-medium: 500;
    --font-weight-semibold: 600;
    --font-weight-bold: 700;
    --spacing-gutter-pct: 0.07;
    --spacing-top-pct: 0.15;
    --spacing-bottom-pct: 0.07;
    --spacing-title-y-pct: 0.055;
    --accent-1: #22d3ee;
    --accent-2: #38bdf8;
    --accent-3: #60a5fa;
    --accent-4: #818cf8;
    --accent-5: #a78bfa;
    --accent-6: #2dd4bf;
}
:root[data-theme="dark"] {
    --background: #0f172a;
    --panel: #1e293b;
    --primary-text: #f1f5f9;
    --muted-text: #94a3b8;
    --inverse-text: #0f172a;
    --border: #334155;
    --shadow-color: #000000;
    --icon-pad-bg: #1e293b;
    --art-glow: #7dd3fc;
    --art-glow-opacity: 0.18;
    --art-sheen: #ffffff;
    --art-sheen-opacity: 0.18;
    --art-shadow: #000000;
    --art-shadow-opacity: 0.28;
    --art-muted-line: #64748b;
    --art-panel-tint: #1e293b;
    --accent-1: #22d3ee;
    --accent-2: #38bdf8;
    --accent-3: #60a5fa;
    --accent-4: #818cf8;
    --accent-5: #a78bfa;
    --accent-6: #2dd4bf;
}
:root[data-theme="light"] {
    --background: #f8fafc;
    --panel: #ffffff;
    --primary-text: #0f172a;
    --muted-text: #64748b;
    --inverse-text: #ffffff;
    --border: #e2e8f0;
    --shadow-color: #000000;
    --icon-pad-bg: #1e293b;
    --art-glow: #0891b2;
    --art-glow-opacity: 0.10;
    --art-sheen: #ffffff;
    --art-sheen-opacity: 0.34;
    --art-shadow: #0f172a;
    --art-shadow-opacity: 0.14;
    --art-muted-line: #94a3b8;
    --art-panel-tint: #f1f5f9;
    --accent-1: #0891b2;
    --accent-2: #0284c7;
    --accent-3: #2563eb;
    --accent-4: #4f46e5;
    --accent-5: #7c3aed;
    --accent-6: #0d9488;
}</style>
  <rect x="0" y="0" width="1.92E+3" height="1.08E+3" fill="#252a34" stroke="none" id="programmatic_background"/>
  <line id="HEADER_DECOR" x1="960.0" x2="1080.0" y1="135.0" y2="135.0" stroke="var(--accent-1)" stroke-width="6" stroke-linecap="round"/>
  <defs>
    <pattern id="svg20fbfc9b-napkin-hatch" patternUnits="userSpaceOnUse" width="12" height="12">
      <path d="M -3 12 L 12 -3 M 0 15 L 15 0" fill="none" stroke="var(--primary-text)" stroke-width="1" stroke-opacity="0.05"/>
    </pattern>
    <filter id="svg20fbfc9b-shadow" x="-30%" y="-30%" width="160%" height="160%">
      <feDropShadow dx="0" dy="2" stdDeviation="3" flood-color="#000000" flood-opacity="0.08"/>
      <feDropShadow dx="0" dy="6" stdDeviation="10" flood-color="#000000" flood-opacity="0.12"/>
    </filter>
    <marker id="svg20fbfc9b-arrowhead" markerWidth="10" markerHeight="10" refX="9" refY="5" orient="auto">
      <path d="M 0 0 L 10 5 L 0 10 Z" fill="var(--accent-1)"/>
    </marker>
    <filter id="svg20fbfc9b-text-glow" x="-20%" y="-20%" width="140%" height="140%">
      <feDropShadow dx="0" dy="0" stdDeviation="2" flood-color="#000000" flood-opacity="0.4"/>
    </filter>
    <radialGradient id="svg20fbfc9b-universal-edge-vignette" cx="50%" cy="50%" r="72%">
      <stop offset="0%" stop-color="var(--background)" stop-opacity="0"/>
      <stop offset="72%" stop-color="var(--background)" stop-opacity="0.12"/>
      <stop offset="100%" stop-color="var(--primary-text)" stop-opacity="0.08"/>
    </radialGradient>
    <linearGradient id="svg20fbfc9b-universal-surface-sheen" x1="0%" y1="0%" x2="100%" y2="100%">
      <stop offset="0%" stop-color="var(--art-sheen)" stop-opacity="var(--art-sheen-opacity)"/>
      <stop offset="46%" stop-color="var(--art-sheen)" stop-opacity="0.035"/>
      <stop offset="100%" stop-color="var(--art-panel-tint)" stop-opacity="0.14"/>
    </linearGradient>
    <radialGradient id="svg20fbfc9b-universal-icon-aura" cx="50%" cy="42%" r="64%">
      <stop offset="0%" stop-color="var(--art-glow)" stop-opacity="var(--art-glow-opacity)"/>
      <stop offset="100%" stop-color="var(--background)" stop-opacity="0"/>
    </radialGradient>
    <linearGradient id="svg20fbfc9b-myth-card-sheen" x1="0%" y1="0%" x2="100%" y2="100%">
      <stop offset="0%" stop-color="var(--inverse-text)" stop-opacity="0.18"/>
      <stop offset="56%" stop-color="var(--inverse-text)" stop-opacity="0.03"/>
      <stop offset="100%" stop-color="var(--background)" stop-opacity="0.12"/>
    </linearGradient>
  </defs>
  <rect width="100%" height="100%" fill="var(--background)" id="CANVAS_BG"/>
  <rect width="100%" height="100%" fill="url(#svg20fbfc9b-napkin-hatch)"/>
  <rect id="UNIVERSAL_EDGE_VIGNETTE" width="100%" height="100%" fill="url(#svg20fbfc9b-universal-edge-vignette)" opacity="0.62"/>
  <text id="TITLE" x="960.0" y="59" text-anchor="middle" font-weight="800" font-size="56" fill="#f1f5f9" style="font-size: 60px; font-family: Inter, Segoe UI, Kalam, Roboto, Helvetica, Arial, sans-serif; font-weight: 700; letter-spacing:-1.2px;" data-final-font-size="60">
    <tspan x="960.0" dy="68.00px">Mordiford Landscape Story Points</tspan>
  </text>
  <rect id="TITLE_FRAME" x="134" y="59" width="1652" height="103" fill="none"/>
  <g transform="translate(0, 190) scale(1.0)">
    <path d="M 920 -8 C 950 80 950 720 920 808" stroke="var(--primary-text)" stroke-width="2" stroke-opacity="0.10" fill="none"/>
    <path d="M 1000 -8 C 970 80 970 720 1000 808" stroke="var(--primary-text)" stroke-width="2" stroke-opacity="0.10" fill="none"/>
    <text x="480.0" y="0" text-anchor="middle" font-weight="900" font-size="52" fill="var(--accent-1)">MYTHS</text>
    <text x="1440.0" y="0" text-anchor="middle" font-weight="900" font-size="52" fill="var(--accent-2)">REALITY</text>
    <!-- Row 1 - cards at y=130 -->
    <g transform="translate(480.0, 130.0)">
      <rect id="ITEM_1_ACCENT_BG" x="-400" y="-110" width="800" height="245" rx="24" fill="var(--accent-6)" fill-opacity="0.15" stroke="none"/>
      <rect id="ITEM_1_BG" x="-400" y="-110" width="800" height="245" rx="18" fill="var(--panel)" stroke="var(--accent-1)" filter="url(#svg20fbfc9b-shadow)" stroke-width="3"/>
      <rect x="-388" y="-98" width="776" height="221" rx="16" fill="url(#svg20fbfc9b-myth-card-sheen)" opacity="0.92"/>
      <circle id="ITEM_1_PAD" cx="-330" cy="-40" r="46" fill="var(--icon-pad-bg)" stroke="var(--background)" stroke-width="2" stroke-opacity="0.65" opacity="0.94" fill-opacity="0.9"/>
      <circle id="ITEM_1_PAD_INNER" cx="-330" cy="-40" r="35.88" fill="var(--accent-6)" fill-opacity="0.22"/>
      <circle cx="-330" cy="-40" r="34" fill="none" stroke="var(--accent-1)" stroke-width="3" stroke-dasharray="6 4"/>
      <g id="ITEM_1_ICON" transform="translate(-358, -68)" data-icon-size="56" stroke-dasharray="6 4">
        <g transform="translate(-13.005714285714289,-11.724285714285719) scale(2.562857142857143)">
          <path fill-rule="evenodd" clip-rule="evenodd" d="M10 8.83354V3.52275C10 3.23233 9.75879 3 9.46734 3H6.54271C6.24121 3 6 3.23233 6 3.52275V12.1687L5 13.0025V29.0025H27V14.0025L16.07 3.77246L10 8.83354Z" fill="#F3C07B"/>
          <path d="M15.92 27.0025H8.08C8.04 27.0025 8 26.9625 8 26.9225V16.3925C8 15.6425 8.61 15.0325 9.36 15.0325H14.65C15.4 15.0325 16.01 15.6425 16.01 16.3925V26.9225C16 26.9625 15.96 27.0025 15.92 27.0025Z" fill="#8C5543"/>
          <path d="M14.5 21.0024C14.7761 21.0024 15 20.7786 15 20.5024C15 20.2263 14.7761 20.0024 14.5 20.0024C14.2239 20.0024 14 20.2263 14 20.5024C14 20.7786 14.2239 21.0024 14.5 21.0024Z" fill="#402A32"/>
          <path d="M15.96 28.0024H8C7.45 28.0024 7 27.5524 7 27.0024C7 26.4524 7.45 26.0024 8 26.0024H15.96C16.51 26.0024 16.96 26.4524 16.96 27.0024C16.96 27.5524 16.51 28.0024 15.96 28.0024Z" fill="#D3D3D3"/>
          <path d="M30 29.0024H2V28.9124C2 27.8524 2.85 27.0024 3.91 27.0024H28.09C29.14 27.0024 30 27.8524 30 28.9124V29.0024Z" fill="#00F397"/>
          <path d="M16.88 2.3525L29.64 14.9225C30.12 15.3925 30.12 16.1525 29.64 16.6125C29.17 17.0825 28.4 17.0825 27.92 16.6125L16.02 4.8925L4.08 16.6525C3.61 17.1225 2.84 17.1225 2.36 16.6525C1.88 16.1825 1.88 15.4225 2.36 14.9525L15.16 2.3525C15.63 1.8825 16.4 1.8825 16.88 2.3525Z" fill="#F8312F"/>
          <path d="M23.14 21.0024H18.86C18.38 21.0024 18 20.6224 18 20.1424V15.8624C18 15.3924 18.38 15.0024 18.86 15.0024H23.14C23.61 15.0024 24 15.3824 24 15.8624V20.1424C24 20.6224 23.62 21.0024 23.14 21.0024Z" fill="#83CBFF"/>
        </g>
      </g>
      <text id="ITEM_1_HEAD" x="52.0" y="-85.0" text-anchor="middle" font-weight="bold" font-size="28" fill="var(--accent-6)" data-bg-id="ITEM_1_BG" fill-opacity="1.0" stroke="none" style="font-size: 30px; font-family: Inter, Segoe UI, Kalam, Roboto, Helvetica, Arial, sans-serif; font-weight: 700; letter-spacing:-0.4px;" data-final-font-size="30">
        <tspan x="52.0" dy="37.75px">Village Settlement</tspan>
      </text>
      <rect id="ITEM_1_HEAD_FRAME" x="-220" y="-85" width="544" height="50" fill="none"/>
      <text id="ITEM_1_BODY" x="52.0" y="-14.0" text-anchor="middle" font-size="22" fill="var(--primary-text)" opacity="0.88" data-bg-id="ITEM_1_BG" data-max-lines="5" style="font-size: 26px; font-family: Inter, Segoe UI, Kalam, Roboto, Helvetica, Arial, sans-serif; font-weight: 400;" data-final-font-size="26">
        <tspan x="52.0" dy="38.10px">The human center where the story meets</tspan>
        <tspan x="52.0" dy="29.90px">communal life</tspan>
      </text>
      <rect id="ITEM_1_BODY_FRAME" x="-220" y="-14" width="544" height="124" fill="none"/>
    </g>
    <g transform="translate(1440.0, 130.0)">
      <rect id="ITEM_2_ACCENT_BG" x="-400" y="-110" width="800" height="245" rx="24" fill="var(--accent-2)" fill-opacity="0.15" stroke="none"/>
      <rect id="ITEM_2_BG" x="-400" y="-110" width="800" height="245" rx="18" fill="var(--panel)" stroke="var(--accent-2)" filter="url(#svg20fbfc9b-shadow)" stroke-width="3"/>
      <rect x="-388" y="-98" width="776" height="221" rx="16" fill="url(#svg20fbfc9b-myth-card-sheen)" opacity="0.92"/>
      <circle id="ITEM_2_PAD" cx="330" cy="-40" r="46" fill="var(--icon-pad-bg)" stroke="var(--background)" stroke-width="2" stroke-opacity="0.65" opacity="0.94" fill-opacity="0.9"/>
      <circle id="ITEM_2_PAD_INNER" cx="330" cy="-40" r="35.88" fill="var(--accent-2)" fill-opacity="0.22"/>
      <circle cx="330" cy="-40" r="34" fill="none" stroke="var(--accent-2)" stroke-width="3" stroke-dasharray="6 4"/>
      <g id="ITEM_2_ICON" transform="translate(302, -68)" data-icon-size="56" stroke-dasharray="6 4">
        <g transform="translate(-11.591724137931035,-11.591724137931037) scale(3.2993103448275862)" vector-effect="non-scaling-stroke" stroke-width="2.38" stroke-linecap="round" stroke-linejoin="round" stroke-opacity="1.0">
          <path d="M12 2L7 6.64286C7 6.64286 10.0424 7 12 7C13.9576 7 17 6.64286 17 6.64286L12 2Z" stroke="#f1f5f9" vector-effect="non-scaling-stroke" fill="none"/>
          <path d="M8.5 7L5 10.9394C5 10.9394 7.625 12 12 12C16.375 12 19 10.9394 19 10.9394L15.5 7" stroke="#f1f5f9" vector-effect="non-scaling-stroke" fill="none"/>
          <path d="M6.5 11.5L3 15.5231C3 15.5231 5.7 18 12 18C18.3 18 21 15.5231 21 15.5231L17.5 11.5" stroke="#f1f5f9" vector-effect="non-scaling-stroke" fill="none"/>
          <path d="M12 22L12 19" stroke="#f1f5f9" vector-effect="non-scaling-stroke" fill="none"/>
        </g>
      </g>
      <text id="ITEM_2_HEAD" x="-52.0" y="-85.0" text-anchor="middle" font-weight="bold" font-size="28" fill="var(--accent-2)" data-bg-id="ITEM_2_BG" fill-opacity="1.0" stroke="none" style="font-size: 30px; font-family: Inter, Segoe UI, Kalam, Roboto, Helvetica, Arial, sans-serif; font-weight: 700; letter-spacing:-0.4px;" data-final-font-size="30">
        <tspan x="-52.0" dy="37.75px">Haugh Wood Lair</tspan>
      </text>
      <rect id="ITEM_2_HEAD_FRAME" x="-324" y="-85" width="544" height="50" fill="none"/>
      <text id="ITEM_2_BODY" x="-52.0" y="-14.0" text-anchor="middle" font-size="22" fill="var(--primary-text)" opacity="0.88" data-bg-id="ITEM_2_BG" data-max-lines="5" style="font-size: 26px; font-family: Inter, Segoe UI, Kalam, Roboto, Helvetica, Arial, sans-serif; font-weight: 400;" data-final-font-size="26">
        <tspan x="-52.0" dy="38.10px">Wooded hills provide a believable hiding</tspan>
        <tspan x="-52.0" dy="29.90px">place for monsters</tspan>
      </text>
      <rect id="ITEM_2_BODY_FRAME" x="-324" y="-14" width="544" height="124" fill="none"/>
    </g>
    <!-- Row 2 - cards at y=400 -->
    <g transform="translate(480.0, 400.0)">
      <rect id="ITEM_3_ACCENT_BG" x="-400" y="-110" width="800" height="245" rx="24" fill="var(--accent-3)" fill-opacity="0.15"/>
      <rect id="ITEM_3_BG" x="-400" y="-110" width="800" height="245" rx="18" fill="var(--panel)" stroke="var(--accent-3)" filter="url(#svg20fbfc9b-shadow)" stroke-width="3"/>
      <rect x="-388" y="-98" width="776" height="221" rx="16" fill="url(#svg20fbfc9b-myth-card-sheen)" opacity="0.92"/>
      <circle id="ITEM_3_PAD" cx="-330" cy="-40" r="46" fill="var(--icon-pad-bg)" stroke="var(--background)" stroke-width="2" stroke-opacity="0.65" opacity="0.94"/>
      <circle id="ITEM_3_PAD_INNER" cx="-330" cy="-40" r="35.88" fill="var(--accent-3)" fill-opacity="0.22"/>
      <circle cx="-330" cy="-40" r="34" fill="none" stroke="var(--accent-3)" stroke-width="3" stroke-dasharray="6 4"/>
      <g id="ITEM_3_ICON" transform="translate(-358, -68)" data-icon-size="56" stroke-dasharray="6 4">
        <g transform="translate(-10.272000000000002,-10.571000000000003) scale(0.14950000000000002)" vector-effect="non-scaling-stroke" fill="#f1f5f9" fill-opacity="1.0" stroke="none">
          <path fill="#f1f5f9" d="M357.676 20.387q-3.917.014-7.856.29c-63.314 4.438-131.13 58.006-142.117 130.253L494 162.992V89.656c-8.09-7.792-16.415-15.25-24.953-22.177c-34.59-28.067-72.195-47.234-111.37-47.093zM125.55 40.812C89.363 40.94 51.743 55.725 18 86.825v81.3l172.107-18.815l-.363-.054c3.872-26.688 14.327-50.957 29.162-71.742c-26.973-24.13-59.536-36.82-93.357-36.7zm110.263 129.514c-24.49-.258-109.87 12.136-109.602 27.078c.46 25.55 104.433 51.553 94.726 53.018C122.553 265.27 67.968 265.427 35.34 295.2c-38.914 35.507 214.983 80.92 184.422 89.687c-57.204 16.412-107.82 36.256-109.002 88.414c-.17 7.52.8 14.385 2.705 20.7h54.945c-15.423-20.635-24.05-40.664-14.6-45.912c10.413 15.107 22.492 31.126 36.174 45.912h64.286c-19.474-9.912-51.732-29.408-50.594-49.424c1.6-28.17 66.37-47.758 69.883-47.758c0 0-48.786 26.384-49.867 49.866c-.767 16.68 22.317 36.985 35.69 47.316h51.976c-16.454-12.325-26.478-24.92-20.426-31.885c15.54 11.066 33.115 22.438 51.826 31.885h106.717c-56.74-15.988-102.683-32.67-115.225-53.127c-10.196-16.63 72.362-27.836 60.408-78.902c-5.79-24.738-58.24-41.094-203.222-62.626c-25.368-3.768 134.358-19.456 129.818-57.11c-2.65-21.98-103.288-26.85-114.58-36.933c-4.746-4.237 5.863-29.56 29.137-34.974zM91.425 308.056c33.376-.145 84.385 22.424 122.8 36.747l-1.79 11.67c-28.404-10.606-103.905-37.464-127.442-48.077c2.06-.22 4.207-.332 6.432-.34m270.234 53.803q.156-.01-.015.253c3.9 12.183-21.487 44.05-61.807 42.842c14.153-7.15 59.732-43.004 61.822-43.096z" vector-effect="non-scaling-stroke" stroke="none"/>
        </g>
      </g>
      <text id="ITEM_3_HEAD" x="52.0" y="-85.0" text-anchor="middle" font-weight="bold" font-size="28" fill="var(--accent-3)" data-bg-id="ITEM_3_BG" style="font-size: 30px; font-family: Inter, Segoe UI, Kalam, Roboto, Helvetica, Arial, sans-serif; font-weight: 700; letter-spacing:-0.4px;" data-final-font-size="30">
        <tspan x="52.0" dy="37.75px">River Confluence</tspan>
      </text>
      <rect id="ITEM_3_HEAD_FRAME" x="-220" y="-85" width="544" height="50" fill="none"/>
      <text id="ITEM_3_BODY" x="52.0" y="-14.0" text-anchor="middle" font-size="22" fill="var(--primary-text)" opacity="0.88" data-bg-id="ITEM_3_BG" data-max-lines="5" style="font-size: 26px; font-family: Inter, Segoe UI, Kalam, Roboto, Helvetica, Arial, sans-serif; font-weight: 400;" data-final-font-size="26">
        <tspan x="52.0" dy="38.10px">The meeting of Wye and Lugg provides</tspan>
        <tspan x="52.0" dy="29.90px">a water route</tspan>
      </text>
      <rect id="ITEM_3_BODY_FRAME" x="-220" y="-14" width="544" height="124" fill="none"/>
    </g>
    <g transform="translate(1440.0, 400.0)">
      <rect id="ITEM_4_ACCENT_BG" x="-400" y="-110" width="800" height="245" rx="24" fill="var(--accent-4)" fill-opacity="0.15"/>
      <rect id="ITEM_4_BG" x="-400" y="-110" width="800" height="245" rx="18" fill="var(--panel)" stroke="var(--accent-4)" filter="url(#svg20fbfc9b-shadow)" stroke-width="3"/>
      <rect x="-388" y="-98" width="776" height="221" rx="16" fill="url(#svg20fbfc9b-myth-card-sheen)" opacity="0.92"/>
      <circle id="ITEM_4_PAD" cx="330" cy="-40" r="46" fill="var(--icon-pad-bg)" stroke="var(--background)" stroke-width="2" stroke-opacity="0.65" opacity="0.94"/>
      <circle id="ITEM_4_PAD_INNER" cx="330" cy="-40" r="35.88" fill="var(--accent-4)" fill-opacity="0.22"/>
      <circle cx="330" cy="-40" r="34" fill="none" stroke="var(--accent-4)" stroke-width="3" stroke-dasharray="6 4"/>
      <g id="ITEM_4_ICON" transform="translate(302, -68)" data-icon-size="56" stroke-dasharray="6 4">
        <g transform="translate(-11.560000000000002,-12.173333333333336) scale(0.15333333333333335)" vector-effect="non-scaling-stroke" fill="#f1f5f9" fill-opacity="1.0" stroke="none">
          <path fill="#f1f5f9" d="M217.537 82.248c-83.48-65.134-156.926-5.426-144.25 50.762c-38.206 16.67-51.368 51.76-29.385 81.955c-33.68 24.46-12.156 49.732 14.856 60.953C1.6 332.255 70.709 373.023 117.7 338.574c26.845 5.103 75.488-1.674 81.824-21.213c16.834-1.017 32.532-11.609 43.323-19.595c6.894 11.698 17.905 22.49 29.39 25.771c18.052 1.544 23.516-2.62 33.987-13.332c20.72 19.632 72.721 18.672 96.748 12.547c99.54 64.093 108.761-75.666 46.605-101.842c23.675-34.319 4.32-85.713-25.242-110.465c23.25-50.096-32.86-65.016-60.719-60.836c-52.552-46.651-122.894-1.897-146.08 32.639zm100.356-32.295c8.836 0 16 7.164 16 16s-7.164 16-16 16s-16-7.163-16-16s7.163-16 16-16m76.488 27.238c8.836 0 16 7.164 16 16s-7.164 16-16 16s-16-7.163-16-16s7.163-16 16-16M144 80c8.837 0 16 7.163 16 16s-7.163 16-16 16s-16-7.163-16-16s7.163-16 16-16m182.781 28.334c8.837 0 16 7.163 16 16s-7.163 16-16 16s-16-7.163-16-16s7.164-16 16-16M208 112c8.837 0 16 7.163 16 16s-7.163 16-16 16s-16-7.163-16-16s7.163-16 16-16m56.273 27.523c8.837 0 16 7.164 16 16s-7.163 16-16 16s-16-7.163-16-16s7.164-16 16-16M400 144c8.837 0 16 7.163 16 16s-7.163 16-16 16s-16-7.163-16-16s7.163-16 16-16m-298.488 26.38c8.836 0 16 7.164 16 16s-7.164 16-16 16s-16-7.163-16-16s7.163-16 16-16m201.478 25.286c8.837 0 16 7.163 16 16s-7.163 16-16 16s-16-7.163-16-16s7.164-16 16-16m-82.883 18.654c8.837 0 16 7.164 16 16s-7.163 16-16 16s-16-7.163-16-16s7.164-16 16-16M388 208c8.837 0 16 7.163 16 16s-7.163 16-16 16s-16-7.163-16-16s7.163-16 16-16M81.518 218.578c8.836 0 16 7.164 16 16s-7.164 16-16 16s-16-7.163-16-16s7.163-16 16-16M160 256c8.837 0 16 7.163 16 16s-7.163 16-16 16s-16-7.163-16-16s7.163-16 16-16m215.666 9.832c8.837 0 16 7.163 16 16s-7.163 16-16 16s-16-7.163-16-16s7.163-16 16-16M288 272c8.837 0 16 7.163 16 16s-7.163 16-16 16s-16-7.163-16-16s7.163-16 16-16m163.145 11.62c8.836 0 16 7.163 16 16s-7.164 16-16 16s-16-7.164-16-16s7.163-16 16-16M69.477 302.51c8.836 0 16 7.163 16 16s-7.164 16-16 16s-16-7.164-16-16s7.163-16 16-16m169.132 20.365a96 96 0 0 1-8.998 5.145c3.227 45.323 7.804 94.725-4.27 141.579c-43.714 9.777-62.016 11.311-96.121 25.81l255.266-.305c-26.615-14.755-55.638-20.352-101.285-27.251c-11.433-39.645-10.039-84.572-6.59-125.457c-14.453-1.194-29.356-10.074-38.002-19.521" vector-effect="non-scaling-stroke" stroke="none"/>
        </g>
      </g>
      <text id="ITEM_4_HEAD" x="-52.0" y="-85.0" text-anchor="middle" font-weight="bold" font-size="28" fill="var(--accent-4)" data-bg-id="ITEM_4_BG" style="font-size: 30px; font-family: Inter, Segoe UI, Kalam, Roboto, Helvetica, Arial, sans-serif; font-weight: 700; letter-spacing:-0.4px;" data-final-font-size="30">
        <tspan x="-52.0" dy="37.75px">Orchard Borders</tspan>
      </text>
      <rect id="ITEM_4_HEAD_FRAME" x="-324" y="-85" width="544" height="50" fill="none"/>
      <text id="ITEM_4_BODY" x="-52.0" y="-14.0" text-anchor="middle" font-size="22" fill="var(--primary-text)" opacity="0.88" data-bg-id="ITEM_4_BG" data-max-lines="5" style="font-size: 26px; font-family: Inter, Segoe UI, Kalam, Roboto, Helvetica, Arial, sans-serif; font-weight: 400;" data-final-font-size="26">
        <tspan x="-52.0" dy="38.10px">Managed land where the dragon threatens</tspan>
        <tspan x="-52.0" dy="29.90px">local livestock</tspan>
      </text>
      <rect id="ITEM_4_BODY_FRAME" x="-324" y="-14" width="544" height="124" fill="none"/>
    </g>
    <!-- Row 3 - cards at y=670 -->
    <g transform="translate(480.0, 670.0)">
      <rect id="ITEM_5_ACCENT_BG" x="-400" y="-110" width="800" height="245" rx="24" fill="var(--accent-5)" fill-opacity="0.15"/>
      <rect id="ITEM_5_BG" x="-400" y="-110" width="800" height="245" rx="18" fill="var(--panel)" stroke="var(--accent-5)" filter="url(#svg20fbfc9b-shadow)" stroke-width="3"/>
      <rect x="-388" y="-98" width="776" height="221" rx="16" fill="url(#svg20fbfc9b-myth-card-sheen)" opacity="0.92"/>
      <circle id="ITEM_5_PAD" cx="-330" cy="-40" r="46" fill="var(--icon-pad-bg)" stroke="var(--background)" stroke-width="2" stroke-opacity="0.65" opacity="0.94"/>
      <circle id="ITEM_5_PAD_INNER" cx="-330" cy="-40" r="35.88" fill="var(--accent-5)" fill-opacity="0.22"/>
      <circle cx="-330" cy="-40" r="34" fill="none" stroke="var(--accent-5)" stroke-width="3" stroke-dasharray="6 4"/>
      <g id="ITEM_5_ICON" transform="translate(-358, -68)" data-icon-size="56" stroke-dasharray="6 4">
        <g transform="translate(-13.005714285714289,-13.005714285714289) scale(2.562857142857143)">
          <path d="M2 5C2 3.34315 3.34315 2 5 2H27C28.6569 2 30 3.34315 30 5V27C30 28.6569 28.6569 30 27 30H5C3.34315 30 2 28.6569 2 27V5Z" fill="#D3D3D3"/>
          <path d="M2 15H14C14.5523 15 15 14.5523 15 14V10C15 9.44772 14.5523 9 14 9H2V15Z" fill="#FF6723"/>
          <path d="M2 23V17H6C6.55228 17 7 17.4477 7 18V22C7 22.5523 6.55228 23 6 23H2Z" fill="#FF6723"/>
          <path d="M15 30V26C15 25.4477 14.5523 25 14 25H2V27C2 28.6569 3.34315 30 5 30H15Z" fill="#FF6723"/>
          <path d="M30 25H18C17.4477 25 17 25.4477 17 26V30H27C28.6569 30 30 28.6569 30 27V25Z" fill="#FF6723"/>
          <path d="M30 17V23H26C25.4477 23 25 22.5523 25 22V18C25 17.4477 25.4477 17 26 17H30Z" fill="#FF6723"/>
          <path d="M30 9H18C17.4477 9 17 9.44772 17 10V14C17 14.5523 17.4477 15 18 15H30V9Z" fill="#FF6723"/>
          <path d="M25 2V6C25 6.55228 25.4477 7 26 7H30V5C30 3.34315 28.6569 2 27 2H25Z" fill="#FF6723"/>
          <path d="M9 2V6C9 6.55228 9.44772 7 10 7H22C22.5523 7 23 6.55228 23 6V2H9Z" fill="#FF6723"/>
          <path d="M7 2H5C3.34315 2 2 3.34315 2 5V7H6C6.55228 7 7 6.55228 7 6V2Z" fill="#FF6723"/>
          <path d="M10 17C9.44772 17 9 17.4477 9 18V22C9 22.5523 9.44772 23 10 23H22C22.5523 23 23 22.5523 23 22V18C23 17.4477 22.5523 17 22 17H10Z" fill="#FF6723"/>
        </g>
      </g>
      <text id="ITEM_5_HEAD" x="52.0" y="-85.0" text-anchor="middle" font-weight="bold" font-size="28" fill="var(--accent-5)" data-bg-id="ITEM_5_BG" style="font-size: 30px; font-family: Inter, Segoe UI, Kalam, Roboto, Helvetica, Arial, sans-serif; font-weight: 700; letter-spacing:-0.4px;" data-final-font-size="30">
        <tspan x="52.0" dy="37.75px">Church Wall Image</tspan>
      </text>
      <rect id="ITEM_5_HEAD_FRAME" x="-220" y="-85" width="544" height="50" fill="none"/>
      <text id="ITEM_5_BODY" x="52.0" y="-14.0" text-anchor="middle" font-size="22" fill="var(--primary-text)" opacity="0.88" data-bg-id="ITEM_5_BG" data-max-lines="5" style="font-size: 26px; font-family: Inter, Segoe UI, Kalam, Roboto, Helvetica, Arial, sans-serif; font-weight: 400;" data-final-font-size="26">
        <tspan x="52.0" dy="38.10px">The visual anchor that preserved the legend</tspan>
        <tspan x="52.0" dy="29.90px">for centuries</tspan>
      </text>
      <rect id="ITEM_5_BODY_FRAME" x="-220" y="-14" width="544" height="124" fill="none"/>
    </g>
  </g>
</svg>
