<?xml version='1.0' encoding='utf-8'?>
<svg xmlns="http://www.w3.org/2000/svg" width="1920" height="1080" viewBox="0 0 1920 1080" data-theme="dark">
  <style>
        @font-face {
            font-family: 'Inter';
            src: url('assets/fonts/Inter-Regular.ttf') format('truetype');
            font-weight: 400;
            font-style: normal;
            font-display: swap;
        }
        @font-face {
            font-family: 'Inter';
            src: url('assets/fonts/Inter-Bold.ttf') format('truetype');
            font-weight: 600;
            font-style: normal;
            font-display: swap;
        }
        @font-face {
            font-family: 'Inter';
            src: url('assets/fonts/Inter-Bold.ttf') format('truetype');
            font-weight: 800;
            font-style: normal;
            font-display: swap;
        }
        
:root {
    --background: #0f172a;
    --panel: #1e293b;
    --primary-text: #f1f5f9;
    --muted-text: #94a3b8;
    --inverse-text: #0f172a;
    --border: #334155;
    --shadow-color: #000000;
    --icon-pad-bg: #1e293b;
    --art-glow: #7dd3fc;
    --art-glow-opacity: 0.18;
    --art-sheen: #ffffff;
    --art-sheen-opacity: 0.18;
    --art-shadow: #000000;
    --art-shadow-opacity: 0.28;
    --art-muted-line: #64748b;
    --art-panel-tint: #1e293b;
    --font-family: 'Inter', 'Segoe UI', 'Kalam', Roboto, Helvetica, Arial, sans-serif;
    --radius-xl: 16px;
    --font-family-headline: 'Inter', 'Segoe UI', 'Kalam', Roboto, Helvetica, Arial, sans-serif;
    --font-family-body: 'Inter', 'Segoe UI', 'Kalam', Roboto, Helvetica, Arial, sans-serif;
    --font-heading: 'Inter', 'Segoe UI', 'Kalam', Roboto, Helvetica, Arial, sans-serif;
    --font-body: 'Inter', 'Segoe UI', 'Kalam', Roboto, Helvetica, Arial, sans-serif;
    --font-size-h1: 56px;
    --font-size-h2: 40px;
    --font-size-h3: 28px;
    --font-size-body: 24px;
    --font-size-caption: 18px;
    --secondary-text: var(--muted-text);
    --panel-border: var(--border);
    --font-weight-normal: 400;
    --font-weight-medium: 500;
    --font-weight-semibold: 600;
    --font-weight-bold: 700;
    --spacing-gutter-pct: 0.07;
    --spacing-top-pct: 0.15;
    --spacing-bottom-pct: 0.07;
    --spacing-title-y-pct: 0.055;
    --accent-1: #fbbf24;
    --accent-2: #fb923c;
    --accent-3: #f87171;
    --accent-4: #a3e635;
    --accent-5: #4ade80;
    --accent-6: #d4a574;
}
:root[data-theme="dark"] {
    --background: #0f172a;
    --panel: #1e293b;
    --primary-text: #f1f5f9;
    --muted-text: #94a3b8;
    --inverse-text: #0f172a;
    --border: #334155;
    --shadow-color: #000000;
    --icon-pad-bg: #1e293b;
    --art-glow: #7dd3fc;
    --art-glow-opacity: 0.18;
    --art-sheen: #ffffff;
    --art-sheen-opacity: 0.18;
    --art-shadow: #000000;
    --art-shadow-opacity: 0.28;
    --art-muted-line: #64748b;
    --art-panel-tint: #1e293b;
    --accent-1: #fbbf24;
    --accent-2: #fb923c;
    --accent-3: #f87171;
    --accent-4: #a3e635;
    --accent-5: #4ade80;
    --accent-6: #d4a574;
}
:root[data-theme="light"] {
    --background: #f8fafc;
    --panel: #ffffff;
    --primary-text: #0f172a;
    --muted-text: #64748b;
    --inverse-text: #ffffff;
    --border: #e2e8f0;
    --shadow-color: #000000;
    --icon-pad-bg: #1e293b;
    --art-glow: #0891b2;
    --art-glow-opacity: 0.10;
    --art-sheen: #ffffff;
    --art-sheen-opacity: 0.34;
    --art-shadow: #0f172a;
    --art-shadow-opacity: 0.14;
    --art-muted-line: #94a3b8;
    --art-panel-tint: #f1f5f9;
    --accent-1: #d97706;
    --accent-2: #ea580c;
    --accent-3: #dc2626;
    --accent-4: #65a30d;
    --accent-5: #16a34a;
    --accent-6: #92400e;
}</style>
  <rect x="0" y="0" width="1.92E+3" height="1.08E+3" fill="#252a34" stroke="none" id="programmatic_background"/>
  <line id="HEADER_DECOR" x1="960.0" x2="1080.0" y1="123.0" y2="123.0" stroke="var(--accent-1)" stroke-width="6" stroke-linecap="round"/>
  <defs>
    <pattern id="svgd5605777-napkin-hatch" patternUnits="userSpaceOnUse" width="12" height="12">
      <path d="M -3 12 L 12 -3 M 0 15 L 15 0" fill="none" stroke="var(--primary-text)" stroke-width="1" stroke-opacity="0.05"/>
    </pattern>
    <filter id="svgd5605777-shadow" x="-30%" y="-30%" width="160%" height="160%">
      <feDropShadow dx="0" dy="3" stdDeviation="6" flood-color="#000000" flood-opacity="0.10"/>
      <feDropShadow dx="0" dy="8" stdDeviation="12" flood-color="#000000" flood-opacity="0.16"/>
    </filter>
    <radialGradient id="svgd5605777-universal-edge-vignette" cx="50%" cy="50%" r="72%">
      <stop offset="0%" stop-color="var(--background)" stop-opacity="0"/>
      <stop offset="72%" stop-color="var(--background)" stop-opacity="0.12"/>
      <stop offset="100%" stop-color="var(--primary-text)" stop-opacity="0.08"/>
    </radialGradient>
    <linearGradient id="svgd5605777-universal-surface-sheen" x1="0%" y1="0%" x2="100%" y2="100%">
      <stop offset="0%" stop-color="var(--art-sheen)" stop-opacity="var(--art-sheen-opacity)"/>
      <stop offset="46%" stop-color="var(--art-sheen)" stop-opacity="0.035"/>
      <stop offset="100%" stop-color="var(--art-panel-tint)" stop-opacity="0.14"/>
    </linearGradient>
    <radialGradient id="svgd5605777-universal-icon-aura" cx="50%" cy="42%" r="64%">
      <stop offset="0%" stop-color="var(--art-glow)" stop-opacity="var(--art-glow-opacity)"/>
      <stop offset="100%" stop-color="var(--background)" stop-opacity="0"/>
    </radialGradient>
    <filter id="svgd5605777-text-glow" x="-20%" y="-20%" width="140%" height="140%">
      <feDropShadow dx="0" dy="0" stdDeviation="2" flood-color="#000000" flood-opacity="0.4"/>
    </filter>
    <marker id="svgd5605777-arrowhead" markerWidth="10" markerHeight="7" refX="9" refY="3.5" orient="auto" markerUnits="strokeWidth">
      <polygon points="0 0, 10 3.5, 0 7" fill="var(--muted-text)" opacity="0.6"/>
    </marker>
  </defs>
  <rect width="100%" height="100%" fill="var(--background)" id="CANVAS_BG"/>
  <rect width="100%" height="100%" fill="url(#svgd5605777-napkin-hatch)"/>
  <rect id="UNIVERSAL_EDGE_VIGNETTE" width="100%" height="100%" fill="url(#svgd5605777-universal-edge-vignette)" opacity="0.62"/>
  <text id="TITLE" x="960.0" y="59" text-anchor="middle" font-size="58" font-weight="800" fill="#f1f5f9" style="font-size: 60px; font-family: Inter, Segoe UI, Kalam, Roboto, Helvetica, Arial, sans-serif; font-weight: 700; letter-spacing:-1.2px;" data-final-font-size="60">
    <tspan x="960.0" dy="68.00px">Evolution of Wild Edric's Legend</tspan>
  </text>
  <rect id="TITLE_FRAME" x="134" y="57" width="1652" height="98" fill="none"/>
  <rect x="140" y="150" width="1640" height="850" rx="40" fill="var(--panel)" fill-opacity="0.24" stroke="var(--muted-text)" stroke-width="2.4" opacity="0.96"/>
  <line x1="960" y1="220" x2="960" y2="940" stroke="var(--muted-text)" stroke-width="14" stroke-linecap="round" opacity="0.18"/>
  <line x1="960" y1="220" x2="960" y2="940" stroke="var(--border)" stroke-width="4" stroke-linecap="round" opacity="0.88"/>
  <g id="DIAGRAM_MAIN">
    <g filter="url(#svgd5605777-shadow)">
      <line x1="934" y1="255.0" x2="624.0" y2="255.0" stroke="var(--accent-1)" stroke-width="3.5" opacity="0.84"/>
      <circle cx="960" cy="255.0" r="20" fill="var(--background)" stroke="var(--accent-1)" stroke-width="3.2"/>
      <text x="960" y="261.0" text-anchor="middle" font-size="14" font-weight="800" fill="var(--primary-text)">1</text>
      <rect id="ITEM_1_BG" x="170" y="171.0" width="490" height="168" rx="22" fill="var(--panel)" fill-opacity="0.97" stroke="var(--accent-1)" stroke-width="3.2"/>
      <rect x="170" y="171.0" width="490" height="16" rx="8" fill="var(--accent-1)" fill-opacity="0.55"/>
      <circle id="ITEM_1_PAD" cx="588.0" cy="255.0" r="40" fill="var(--icon-pad-bg)" opacity="0.95" fill-opacity="0.9" stroke-width="2" stroke="var(--primary-text)"/>
      <circle id="ITEM_1_PAD_INNER" cx="588.0" cy="255.0" r="31.20" fill="var(--accent-2)" fill-opacity="0.22"/>
      <circle cx="588.0" cy="255.0" r="32" fill="none" stroke="var(--accent-1)" stroke-width="3" stroke-dasharray="6 4"/>
      <g id="ITEM_1_ICON" transform="translate(558.0, 225.0)" data-icon-size="60" stroke-dasharray="6 4">
        <g transform="translate(-5.65714285714286,-5.65714285714286) scale(2.2285714285714286)">
          <path d="M18.73 8.235H13.31C13.01 8.235 12.81 7.915 12.95 7.645L15.66 2.225C15.81 1.925 16.23 1.925 16.38 2.225L19.09 7.645C19.23 7.915 19.03 8.235 18.73 8.235ZM12.3476 20H3.65244C3.16703 20 2.85046 19.5829 3.07206 19.2266L7.41962 10.2933C7.66233 9.90224 8.33767 9.90224 8.58038 10.2933L12.9279 19.2266C13.1495 19.5829 12.833 20 12.3476 20ZM19.6524 20H28.3476C28.833 20 29.1495 19.5829 28.9279 19.2266L24.5804 10.2933C24.3377 9.90224 23.6623 9.90224 23.4196 10.2933L19.0721 19.2266C18.8505 19.5829 19.167 20 19.6524 20Z" fill="#F8312F"/>
          <path d="M19.391 7H18.9439C18.611 7 18.3256 7.26877 18.3351 7.60474C18.3446 7.95031 18.0688 8.22868 17.7263 8.22868H17.441C17.1081 8.22868 16.8227 7.95991 16.8322 7.62394C16.8417 7.27837 16.5659 7 16.2234 7H15.7763C15.4434 7 15.1581 7.26877 15.1676 7.60474C15.1771 7.95031 14.9012 8.22868 14.5588 8.22868H14.2734C13.9405 8.22868 13.6551 7.95991 13.6646 7.62394C13.6741 7.27837 13.3983 7 13.0559 7H12.6088C12.2759 7 12 7.27837 12 7.61434V8.22868V11.4252C12 11.7612 12.1671 12 12.5 12H13C12.4959 12 12 12 12 13V24H19.9998V13C20 12 19.5041 12 19 12H19.5C19.8329 12 19.9998 11.7612 19.9998 11.4252V8.22868V7.61434C20.0093 7.26878 19.7334 7 19.391 7Z" fill="#998EA4"/>
          <path d="M30 19.1976V19.5873L29.99 30H18.9573L15.9667 28.3026L12.9761 30H2V19.5873V19.1976V18.5988C2 18.2661 2.30989 18 2.65976 18H3.1296C3.47947 18 3.75937 18.2661 3.75937 18.5988C3.75937 18.9315 4.03927 19.1976 4.38915 19.1976H4.67904C5.02892 19.1976 5.30882 18.9315 5.30882 18.5988C5.30882 18.2661 5.58872 18 5.93859 18H6.39843C6.7483 18 7.0282 18.2661 7.0282 18.5988C7.0282 18.9315 7.3081 19.1976 7.65798 19.1976H7.95787C8.30775 19.1976 8.58765 18.9315 8.58765 18.5988C8.58765 18.2661 8.86755 18 9.21742 18H9.22742H9.67726H9.68725C10.0371 18 10.317 18.2661 10.317 18.5988C10.317 18.9315 10.5969 19.1976 10.9468 19.1976H11.2567C11.6066 19.1976 11.8865 18.9315 11.8865 18.5988C11.8865 18.2661 12.1664 18 12.5162 18H12.9761C13.326 18 13.6059 18.2661 13.6059 18.5988C13.6059 18.9315 13.8858 19.1976 14.2356 19.1976H14.5255C14.8754 19.1976 15.1553 18.9315 15.1553 18.5988C15.1553 18.2661 15.4352 18 15.7851 18H15.7951H16.2749H16.2849C16.6348 18 16.9147 18.2661 16.9147 18.5988C16.9147 18.9315 17.1946 19.1976 17.5444 19.1976H17.8343C18.1842 19.1976 18.4641 18.9315 18.4641 18.5988C18.4641 18.2661 18.744 18 19.0939 18H19.5537C19.9036 18 20.1835 18.2661 20.1835 18.5988C20.1835 18.9315 20.4634 19.1976 20.8133 19.1976H21.1032C21.4531 19.1976 21.733 18.9315 21.733 18.5988C21.733 18.2661 22.0129 18 22.3627 18H22.3727H22.8226H22.8326C23.1824 18 23.4623 18.2661 23.4623 18.5988C23.4623 18.9315 23.7422 19.1976 24.0921 19.1976H24.382C24.7319 19.1976 25.0118 18.9315 25.0118 18.5988C25.0118 18.2661 25.2917 18 25.6416 18H26.1014C26.4513 18 26.7312 18.2661 26.7312 18.5988C26.7312 18.9315 27.0111 19.1976 27.3609 19.1976H27.6508C28.0007 19.1976 28.2806 18.9315 28.2806 18.5988C28.2806 18.2661 28.5605 18 28.9104 18H29.3702C29.7201 18 30 18.2661 30 18.5988V19.1976Z" fill="#B4ACBC"/>
          <path d="M15 14H16.9873H17V13C17 12.443 16.5443 12 16 12C15.443 12 15 12.4557 15 13V14ZM13 30H18.9907V26.7692C18.9907 24.9888 17.66 24 16 24C14.3493 24 13 24.9788 13 26.7692V30Z" fill="#5235A6"/>
          <path d="M7.5 7.30591V9.19016C7.5 9.40494 7.71212 9.55139 7.91414 9.48305L10.2632 8.36557C10.3582 8.32038 10.3583 8.18523 10.2634 8.13989L7.90404 7.01302C7.70202 6.95444 7.5 7.10088 7.5 7.30591ZM23.5 7.30591V9.19016C23.5 9.40494 23.7121 9.55139 23.9141 9.48305L26.2632 8.36557C26.3582 8.32038 26.3583 8.18523 26.2634 8.13989L23.904 7.01302C23.702 6.95444 23.5 7.10088 23.5 7.30591Z" fill="#26C9FC"/>
        </g>
      </g>
      <text id="ITEM_1_HEAD" x="346.0" y="189.0" text-anchor="middle" font-weight="800" font-size="24" fill="var(--accent-2)" data-bg-id="ITEM_1_BG" fill-opacity="1.0" stroke="none" style="font-size: 27px; font-family: Inter, Segoe UI, Kalam, Roboto, Helvetica, Arial, sans-serif; font-weight: 700; letter-spacing:-0.4px;" data-final-font-size="27">
        <tspan x="346.0" dy="23.08px">Historical Resistance</tspan>
      </text>
      <rect id="ITEM_1_HEAD_FRAME" x="206.0" y="189.0" width="280" height="34" fill="none"/>
      <text id="ITEM_1_BODY" x="362.0" y="229.0" text-anchor="middle" font-size="18" fill="var(--primary-text)" data-bg-id="ITEM_1_BG" style="font-size: 24px; font-family: Inter, Segoe UI, Kalam, Roboto, Helvetica, Arial, sans-serif; font-weight: 400;" data-final-font-size="24">
        <tspan x="362.0" dy="22.16px">Eadric opposes Norman power</tspan>
        <tspan x="362.0" dy="27.60px">in 1067 near Hereford</tspan>
      </text>
      <rect id="ITEM_1_BODY_FRAME" x="202.0" y="229.0" width="320" height="70" fill="none"/>
    </g>
    <g filter="url(#svgd5605777-shadow)">
      <line x1="986" y1="471.7" x2="1316.0" y2="471.7" stroke="var(--accent-2)" stroke-width="3.5" opacity="0.84"/>
      <circle cx="960" cy="471.7" r="20" fill="var(--background)" stroke="var(--accent-2)" stroke-width="3.2"/>
      <text x="960" y="477.7" text-anchor="middle" font-size="14" font-weight="800" fill="var(--primary-text)">2</text>
      <rect id="ITEM_2_BG" x="1280" y="387.7" width="490" height="168" rx="22" fill="var(--panel)" fill-opacity="0.97" stroke="var(--accent-2)" stroke-width="3.2"/>
      <rect x="1280" y="387.7" width="490" height="16" rx="8" fill="var(--accent-2)" fill-opacity="0.55"/>
      <circle id="ITEM_2_PAD" cx="1352.0" cy="471.7" r="40" fill="var(--icon-pad-bg)" opacity="0.95" fill-opacity="0.9" stroke-width="2" stroke="var(--primary-text)"/>
      <circle id="ITEM_2_PAD_INNER" cx="1352.0" cy="471.7" r="31.20" fill="var(--accent-3)" fill-opacity="0.22"/>
      <circle cx="1352.0" cy="471.7" r="32" fill="none" stroke="var(--accent-2)" stroke-width="3" stroke-dasharray="6 4"/>
      <g id="ITEM_2_ICON" transform="translate(1322.0, 441.7)" data-icon-size="60" stroke-dasharray="6 4">
        <g transform="translate(-5.341592920353987,-5.617699115044255) scale(2.2088495575221243)">
          <path d="M23.5103 2.01H8.60027V2H4.45026V5H6.95026V27.07C6.95026 28.69 8.27026 30.01 9.89026 30.01H25.5603C26.3303 30.01 26.9503 29.39 26.9503 28.62V5.45C26.9503 3.55 25.4103 2.01 23.5103 2.01Z" fill="#FFDEA7"/>
          <path d="M10.8603 29.99C10.8603 29.99 13.1003 29.66 13.5903 27.49C13.6603 27.19 14.0003 26.97 14.4003 26.97H29.1303C29.6503 26.97 30.0403 27.33 29.9503 27.71C29.7203 28.6 29.3503 30 25.5803 30C20.0103 30 10.8603 29.99 10.8603 29.99Z" fill="#E19747"/>
          <path d="M6.95026 5C6.95026 3.34 5.83027 2 4.45026 2C3.26026 2 2.27028 3 2.01028 4.33C1.95028 4.67 2.16026 5 2.45026 5H6.95026Z" fill="#D3883E"/>
          <path d="M10.4203 11.87C10.1441 11.87 9.92029 12.0939 9.92029 12.37C9.92029 12.6461 10.1441 12.87 10.4203 12.87H23.5003C23.7764 12.87 24.0003 12.6461 24.0003 12.37C24.0003 12.0939 23.7764 11.87 23.5003 11.87H10.4203ZM9.98029 15.33C9.98029 15.0539 10.2041 14.83 10.4803 14.83H23.5003C23.7764 14.83 24.0003 15.0539 24.0003 15.33C24.0003 15.6062 23.7764 15.83 23.5003 15.83H10.4803C10.2041 15.83 9.98029 15.6062 9.98029 15.33ZM10.4803 17.85C10.2041 17.85 9.98029 18.0738 9.98029 18.35C9.98029 18.6261 10.2041 18.85 10.4803 18.85H23.5003C23.7764 18.85 24.0003 18.6261 24.0003 18.35C24.0003 18.0738 23.7764 17.85 23.5003 17.85H10.4803ZM10.5103 20.83C10.2341 20.83 10.0103 21.0539 10.0103 21.33C10.0103 21.6062 10.2341 21.83 10.5103 21.83H18.4703C18.7464 21.83 18.9703 21.6062 18.9703 21.33C18.9703 21.0539 18.7464 20.83 18.4703 20.83H10.5103Z" fill="#D3883E"/>
        </g>
      </g>
      <text id="ITEM_2_HEAD" x="1570.0" y="405.7" text-anchor="middle" font-weight="800" font-size="24" fill="var(--accent-3)" data-bg-id="ITEM_2_BG" fill-opacity="1.0" stroke="none" style="font-size: 30px; font-family: Inter, Segoe UI, Kalam, Roboto, Helvetica, Arial, sans-serif; font-weight: 700; letter-spacing:-0.4px;" data-final-font-size="30">
        <tspan x="1570.0" dy="25.25px">Medieval Literature</tspan>
      </text>
      <rect id="ITEM_2_HEAD_FRAME" x="1430.0" y="405.7" width="280" height="34" fill="none"/>
      <text id="ITEM_2_BODY" x="1580.0" y="445.7" text-anchor="middle" font-size="18" fill="var(--primary-text)" data-bg-id="ITEM_2_BG" style="font-size: 25px; font-family: Inter, Segoe UI, Kalam, Roboto, Helvetica, Arial, sans-serif; font-weight: 400;" data-final-font-size="25">
        <tspan x="1580.0" dy="22.50px">Walter Map records Edric's</tspan>
        <tspan x="1580.0" dy="28.75px">wife in Courtiers' Trifles</tspan>
      </text>
      <rect id="ITEM_2_BODY_FRAME" x="1420.0" y="445.7" width="320" height="70" fill="none"/>
    </g>
    <g filter="url(#svgd5605777-shadow)">
      <line x1="934" y1="688.3" x2="624.0" y2="688.3" stroke="var(--accent-3)" stroke-width="3.5" opacity="0.84"/>
      <circle cx="960" cy="688.3" r="20" fill="var(--background)" stroke="var(--accent-3)" stroke-width="3.2"/>
      <text x="960" y="694.3" text-anchor="middle" font-size="14" font-weight="800" fill="var(--primary-text)">3</text>
      <rect id="ITEM_3_BG" x="170" y="604.3" width="490" height="168" rx="22" fill="var(--panel)" fill-opacity="0.97" stroke="var(--accent-3)" stroke-width="3.2"/>
      <rect x="170" y="604.3" width="490" height="16" rx="8" fill="var(--accent-3)" fill-opacity="0.55"/>
      <circle id="ITEM_3_PAD" cx="588.0" cy="688.3" r="40" fill="var(--icon-pad-bg)" opacity="0.95" fill-opacity="0.9" stroke-width="2" stroke="var(--primary-text)"/>
      <circle id="ITEM_3_PAD_INNER" cx="588.0" cy="688.3" r="31.20" fill="var(--accent-4)" fill-opacity="0.22"/>
      <circle cx="588.0" cy="688.3" r="32" fill="none" stroke="var(--accent-3)" stroke-width="3" stroke-dasharray="6 4"/>
      <g id="ITEM_3_ICON" transform="translate(558.0, 658.3)" data-icon-size="60" stroke-dasharray="6 4">
        <g transform="translate(-6.977777777777781,-8.422222222222226) scale(3.081481481481482)" vector-effect="non-scaling-stroke" stroke-width="2.43" stroke-linecap="round" stroke-linejoin="round" stroke-opacity="1.0">
          <path d="M3 6h18" vector-effect="non-scaling-stroke" fill="none" stroke="#f1f5f9"/>
          <path d="M4 6v13" vector-effect="non-scaling-stroke" fill="none" stroke="#f1f5f9"/>
          <path d="M20 19v-13" vector-effect="non-scaling-stroke" fill="none" stroke="#f1f5f9"/>
          <path d="M4 10h16" vector-effect="non-scaling-stroke" fill="none" stroke="#f1f5f9"/>
          <path d="M15 6v8a2 2 0 0 0 2 2h3" vector-effect="non-scaling-stroke" fill="none" stroke="#f1f5f9"/>
        </g>
      </g>
      <text id="ITEM_3_HEAD" x="346.0" y="622.3" text-anchor="middle" font-weight="800" font-size="24" fill="var(--accent-4)" data-bg-id="ITEM_3_BG" fill-opacity="1.0" stroke="none" style="font-size: 28px; font-family: Inter, Segoe UI, Kalam, Roboto, Helvetica, Arial, sans-serif; font-weight: 700; letter-spacing:-0.4px;" data-final-font-size="28">
        <tspan x="346.0" dy="23.30px">Victorian Collection</tspan>
      </text>
      <rect id="ITEM_3_HEAD_FRAME" x="206.0" y="622.3" width="280" height="34" fill="none"/>
      <text id="ITEM_3_BODY" x="362.0" y="662.3" text-anchor="middle" font-size="18" fill="var(--primary-text)" data-bg-id="ITEM_3_BG" style="font-size: 26px; font-family: Inter, Segoe UI, Kalam, Roboto, Helvetica, Arial, sans-serif; font-weight: 400;" data-final-font-size="26">
        <tspan x="362.0" dy="22.84px">Burne records the fairy</tspan>
        <tspan x="362.0" dy="29.90px">wife and Wild Hunt</tspan>
      </text>
      <rect id="ITEM_3_BODY_FRAME" x="202.0" y="662.3" width="320" height="70" fill="none"/>
    </g>
    <g filter="url(#svgd5605777-shadow)">
      <line x1="986" y1="905.0" x2="1316.0" y2="905.0" stroke="var(--accent-4)" stroke-width="3.5" opacity="0.84"/>
      <circle cx="960" cy="905.0" r="20" fill="var(--background)" stroke="var(--accent-4)" stroke-width="3.2"/>
      <text x="960" y="911.0" text-anchor="middle" font-size="14" font-weight="800" fill="var(--primary-text)">4</text>
      <rect id="ITEM_4_BG" x="1280" y="821.0" width="490" height="168" rx="22" fill="var(--panel)" fill-opacity="0.97" stroke="var(--accent-4)" stroke-width="3.2"/>
      <rect x="1280" y="821.0" width="490" height="16" rx="8" fill="var(--accent-4)" fill-opacity="0.55"/>
      <circle id="ITEM_4_PAD" cx="1352.0" cy="905.0" r="40" fill="var(--icon-pad-bg)" opacity="0.95" fill-opacity="0.9" stroke-width="2" stroke="var(--primary-text)"/>
      <circle id="ITEM_4_PAD_INNER" cx="1352.0" cy="905.0" r="31.20" fill="var(--accent-5)" fill-opacity="0.22"/>
      <circle cx="1352.0" cy="905.0" r="32" fill="none" stroke="var(--accent-4)" stroke-width="3" stroke-dasharray="6 4"/>
      <g id="ITEM_4_ICON" transform="translate(1322.0, 875.0)" data-icon-size="60" stroke-dasharray="6 4">
        <g transform="translate(-5.65714285714286,-13.457142857142859) scale(2.2285714285714286)">
          <path d="M24.99 19.88C24.99 19.88 20.23 19.24 18.94 15.52H18.93V11.59C18.93 10.16 17.77 9 16.34 9H4.59C3.16 9 2 10.16 2 11.59V15.53V25.93H11.4C12.96 25.93 14.22 26.19 14.22 27.75H27.06C28.13 27.75 29 27.88 29 26.81L30 25.94C30.01 22.97 27.9 20.43 24.99 19.88Z" fill="#FFB02E"/>
          <path d="M2 13.84V11.59C2 10.16 3.16 9 4.59 9H10.86V11.91C10.86 12.98 9.99 13.84 8.93 13.84H2Z" fill="#7D4533"/>
          <path d="M18.6186 13.0202C18.9998 13.0154 19.3049 12.7026 19.3002 12.3214C19.2954 11.9402 18.9825 11.6351 18.6013 11.6398L16.2013 11.6698C15.8201 11.6746 15.515 11.9875 15.5198 12.3686C15.5245 12.7498 15.8374 13.055 16.2186 13.0502L18.6186 13.0202Z" fill="#7D4533"/>
          <path d="M30 25.93V27.54C30 28 30.03 28.16 29.89 28.49C29.68 29.29 28.97 29.89 28.15 29.98C27.22 30.08 26.39 29.54 26.06 28.75H25.02C24.72 29.48 23.99 29.99 23.15 29.99C22.31 29.99 21.59 29.48 21.28 28.75H20.24C19.94 29.48 19.21 29.99 18.37 29.99C17.53 29.99 16.81 29.48 16.5 28.75H15.46C15.16 29.48 14.43 29.99 13.59 29.99C12.75 29.99 12.03 29.48 11.72 28.75H10.68C10.38 29.48 9.65 29.99 8.81 29.99C7.97 29.99 7.25 29.48 6.94 28.75H5.9C5.6 29.48 4.87 29.99 4.03 29.99C2.91 29.99 2 29.08 2 27.96V25.93H30Z" fill="#7D4533"/>
          <path d="M19.3001 15.5385C19.3065 15.9196 19.0026 16.2338 18.6215 16.2401L16.2215 16.2801C15.8403 16.2865 15.5262 15.9827 15.5198 15.6015C15.5135 15.2203 15.8173 14.9062 16.1985 14.8998L18.5985 14.8598C18.9796 14.8535 19.2938 15.1573 19.3001 15.5385Z" fill="#7D4533"/>
        </g>
      </g>
      <text id="ITEM_4_HEAD" x="1570.0" y="839.0" text-anchor="middle" font-weight="800" font-size="24" fill="var(--accent-5)" data-bg-id="ITEM_4_BG" fill-opacity="1.0" stroke="none" style="font-size: 30px; font-family: Inter, Segoe UI, Kalam, Roboto, Helvetica, Arial, sans-serif; font-weight: 700; letter-spacing:-0.4px;" data-final-font-size="30">
        <tspan x="1570.0" dy="25.25px">Modern Place-Story</tspan>
      </text>
      <rect id="ITEM_4_HEAD_FRAME" x="1430.0" y="839.0" width="280" height="34" fill="none"/>
      <text id="ITEM_4_BODY" x="1580.0" y="879.0" text-anchor="middle" font-size="18" fill="var(--primary-text)" data-bg-id="ITEM_4_BG" style="font-size: 23px; font-family: Inter, Segoe UI, Kalam, Roboto, Helvetica, Arial, sans-serif; font-weight: 400;" data-final-font-size="23">
        <tspan x="1580.0" dy="21.82px">Stiperstones walking guides</tspan>
        <tspan x="1580.0" dy="26.45px">keep the legend active today</tspan>
      </text>
      <rect id="ITEM_4_BODY_FRAME" x="1420.0" y="879.0" width="320" height="70" fill="none"/>
    </g>
  </g>
</svg>
